<mxfile host="Electron" modified="2024-04-24T20:02:59.476Z" agent="Mozilla/5.0 (X11; Linux x86_64) AppleWebKit/537.36 (KHTML, like Gecko) draw.io/24.2.5 Chrome/120.0.6099.109 Electron/28.1.0 Safari/537.36" etag="i-c1yEVbn8hXbYaArXxA" version="24.2.5" type="device">
  <diagram id="hV-7ReAl1Wfyd3xVh0Qg" name="Page-1">
    <mxGraphModel dx="779" dy="482" grid="0" gridSize="10" guides="1" tooltips="1" connect="1" arrows="1" fold="1" page="1" pageScale="1" pageWidth="1169" pageHeight="827" math="0" shadow="0" extFonts="Source Sans pro^https://fonts.googleapis.com/css?family=Source+Sans+pro|Hack^https://fonts.googleapis.com/css?family=Hack">
      <root>
        <mxCell id="0" />
        <mxCell id="1" style="" parent="0" />
        <mxCell id="Qhg78K9M03xVrOgJA2YK-5" value="" style="rounded=1;whiteSpace=wrap;html=1;arcSize=12;fontStyle=1;fillColor=#F2F6FF;strokeColor=#6c8ebf;absoluteArcSize=1;" parent="1" vertex="1">
          <mxGeometry x="12" y="107" width="446" height="381" as="geometry" />
        </mxCell>
        <mxCell id="3AqXI54nhejsne2jLLB9-10" value="" style="endArrow=block;html=1;fontColor=#000000;entryX=0;entryY=0.5;entryDx=0;entryDy=0;rounded=0;strokeWidth=6;endFill=1;endSize=0;" parent="1" target="3AqXI54nhejsne2jLLB9-3" edge="1">
          <mxGeometry width="50" height="50" relative="1" as="geometry">
            <mxPoint x="292" y="287" as="sourcePoint" />
            <mxPoint x="345.5" y="367" as="targetPoint" />
            <Array as="points" />
          </mxGeometry>
        </mxCell>
        <mxCell id="QXpotxg9jiCfd9cfQt9x-4" value="" style="rounded=1;whiteSpace=wrap;html=1;arcSize=12;fontStyle=0;fillColor=#dae8fc;strokeColor=#6c8ebf;absoluteArcSize=1;" parent="1" vertex="1">
          <mxGeometry x="24" y="220" width="270" height="203" as="geometry" />
        </mxCell>
        <mxCell id="L99Kusbpt5Ot0ZVRhMrV-20" value="" style="group" parent="1" vertex="1" connectable="0">
          <mxGeometry x="165" y="226" width="30" height="30" as="geometry" />
        </mxCell>
        <mxCell id="L99Kusbpt5Ot0ZVRhMrV-21" value="" style="rounded=1;whiteSpace=wrap;html=1;fillColor=#E6E6E6;" parent="L99Kusbpt5Ot0ZVRhMrV-20" vertex="1">
          <mxGeometry width="30" height="30" as="geometry" />
        </mxCell>
        <mxCell id="L99Kusbpt5Ot0ZVRhMrV-22" value="" style="group" parent="L99Kusbpt5Ot0ZVRhMrV-20" vertex="1" connectable="0">
          <mxGeometry x="7" y="7" width="16" height="16" as="geometry" />
        </mxCell>
        <mxCell id="L99Kusbpt5Ot0ZVRhMrV-23" value="" style="group;aspect=fixed;connectable=0;editable=0;strokeColor=none;strokeWidth=2;fillColor=none;" parent="L99Kusbpt5Ot0ZVRhMrV-22" vertex="1" connectable="0">
          <mxGeometry width="16" height="16" as="geometry" />
        </mxCell>
        <mxCell id="L99Kusbpt5Ot0ZVRhMrV-24" value="" style="rounded=0;whiteSpace=wrap;html=1;strokeColor=none;aspect=fixed;fillColor=none;connectable=0;" parent="L99Kusbpt5Ot0ZVRhMrV-23" vertex="1">
          <mxGeometry width="16" height="16" as="geometry" />
        </mxCell>
        <mxCell id="L99Kusbpt5Ot0ZVRhMrV-25" value="" style="shape=image;aspect=fixed;image=data:image/svg+xml,PHN2ZyB4bWxucz0iaHR0cDovL3d3dy53My5vcmcvMjAwMC9zdmciIHZpZXdCb3g9IjAgMCA1MTIgNTEyIj48cGF0aCBkPSJNNDY0IDEyOEgyNzJsLTY0LTY0SDQ4QzIxLjQ5IDY0IDAgODUuNDkgMCAxMTJ2Mjg4YzAgMjYuNTEgMjEuNDkgNDggNDggNDhoNDE2YzI2LjUxIDAgNDgtMjEuNDkgNDgtNDhWMTc2YzAtMjYuNTEtMjEuNDktNDgtNDgtNDh6Ii8+PC9zdmc+;connectable=0;editable=0;movable=0;resizable=1;rotatable=0;cloneable=0;deletable=0;recursiveResize=0;imageBackground=none;noLabel=1;fontColor=none;" parent="L99Kusbpt5Ot0ZVRhMrV-23" vertex="1">
          <mxGeometry width="16" height="16" as="geometry" />
        </mxCell>
        <mxCell id="nApI-rJWuCJ3Q17Jzmus-66" value="" style="endArrow=block;html=1;fontColor=#000000;exitX=0.5;exitY=1;exitDx=0;exitDy=0;entryX=0.5;entryY=0;entryDx=0;entryDy=0;rounded=0;strokeWidth=6;endFill=1;endSize=0;" parent="1" source="nApI-rJWuCJ3Q17Jzmus-51" target="QXpotxg9jiCfd9cfQt9x-4" edge="1">
          <mxGeometry width="50" height="50" relative="1" as="geometry">
            <mxPoint x="-94" y="117" as="sourcePoint" />
            <mxPoint x="24" y="322.25" as="targetPoint" />
            <Array as="points">
              <mxPoint x="39" y="167" />
              <mxPoint x="159" y="167" />
            </Array>
          </mxGeometry>
        </mxCell>
        <mxCell id="nApI-rJWuCJ3Q17Jzmus-67" value="" style="endArrow=block;html=1;fontColor=#000000;exitX=0;exitY=0.5;exitDx=0;exitDy=0;rounded=0;strokeWidth=6;endFill=1;endSize=0;" parent="1" source="C2EvqtGhiyWC_0qhIHkO-14" edge="1">
          <mxGeometry width="50" height="50" relative="1" as="geometry">
            <mxPoint x="191" y="130.5" as="sourcePoint" />
            <mxPoint x="141" y="131" as="targetPoint" />
            <Array as="points" />
          </mxGeometry>
        </mxCell>
        <mxCell id="nApI-rJWuCJ3Q17Jzmus-71" value="" style="endArrow=block;html=1;fontColor=#000000;exitX=0.5;exitY=1;exitDx=0;exitDy=0;entryX=0.5;entryY=0;entryDx=0;entryDy=0;rounded=0;strokeWidth=6;endFill=1;endSize=0;" parent="1" source="C2EvqtGhiyWC_0qhIHkO-14" target="QXpotxg9jiCfd9cfQt9x-4" edge="1">
          <mxGeometry width="50" height="50" relative="1" as="geometry">
            <mxPoint x="288.75" y="158" as="sourcePoint" />
            <mxPoint x="190" y="237.5" as="targetPoint" />
            <Array as="points">
              <mxPoint x="207" y="167" />
              <mxPoint x="159" y="167" />
            </Array>
          </mxGeometry>
        </mxCell>
        <mxCell id="nApI-rJWuCJ3Q17Jzmus-73" value="" style="endArrow=block;html=1;fontColor=#000000;entryX=0;entryY=0.5;entryDx=0;entryDy=0;rounded=0;strokeWidth=6;endFill=1;endSize=0;exitX=1;exitY=0.25;exitDx=0;exitDy=0;" parent="1" target="C2EvqtGhiyWC_0qhIHkO-21" edge="1">
          <mxGeometry width="50" height="50" relative="1" as="geometry">
            <mxPoint x="294" y="357.7500000000001" as="sourcePoint" />
            <mxPoint x="442" y="349.5" as="targetPoint" />
            <Array as="points" />
          </mxGeometry>
        </mxCell>
        <mxCell id="nApI-rJWuCJ3Q17Jzmus-50" value="" style="group" parent="1" vertex="1" connectable="0">
          <mxGeometry x="24" y="117" width="122" height="30" as="geometry" />
        </mxCell>
        <mxCell id="nApI-rJWuCJ3Q17Jzmus-51" value="" style="rounded=1;whiteSpace=wrap;html=1;fillColor=#E6E6E6;" parent="nApI-rJWuCJ3Q17Jzmus-50" vertex="1">
          <mxGeometry width="30" height="30" as="geometry" />
        </mxCell>
        <mxCell id="nApI-rJWuCJ3Q17Jzmus-52" value="" style="group" parent="nApI-rJWuCJ3Q17Jzmus-50" vertex="1" connectable="0">
          <mxGeometry x="7" y="7" width="16" height="16" as="geometry" />
        </mxCell>
        <mxCell id="nApI-rJWuCJ3Q17Jzmus-53" value="" style="group;aspect=fixed;connectable=0;editable=0;strokeColor=none;strokeWidth=2;fillColor=none;" parent="nApI-rJWuCJ3Q17Jzmus-52" vertex="1" connectable="0">
          <mxGeometry width="16" height="16" as="geometry" />
        </mxCell>
        <mxCell id="nApI-rJWuCJ3Q17Jzmus-54" value="" style="rounded=0;whiteSpace=wrap;html=1;strokeColor=none;aspect=fixed;fillColor=none;connectable=0;" parent="nApI-rJWuCJ3Q17Jzmus-53" vertex="1">
          <mxGeometry width="16" height="16" as="geometry" />
        </mxCell>
        <mxCell id="nApI-rJWuCJ3Q17Jzmus-55" value="" style="shape=image;aspect=fixed;image=data:image/svg+xml,PHN2ZyB4bWxucz0iaHR0cDovL3d3dy53My5vcmcvMjAwMC9zdmciIHZpZXdCb3g9IjAgMCA1MTIgNTEyIj48cGF0aCBkPSJNNDY0IDEyOEgyNzJsLTY0LTY0SDQ4QzIxLjQ5IDY0IDAgODUuNDkgMCAxMTJ2Mjg4YzAgMjYuNTEgMjEuNDkgNDggNDggNDhoNDE2YzI2LjUxIDAgNDgtMjEuNDkgNDgtNDhWMTc2YzAtMjYuNTEtMjEuNDktNDgtNDgtNDh6Ii8+PC9zdmc+;connectable=0;editable=0;movable=0;resizable=1;rotatable=0;cloneable=0;deletable=0;recursiveResize=0;imageBackground=none;noLabel=1;fontColor=none;" parent="nApI-rJWuCJ3Q17Jzmus-53" vertex="1">
          <mxGeometry width="16" height="16" as="geometry" />
        </mxCell>
        <mxCell id="nApI-rJWuCJ3Q17Jzmus-56" value="&lt;font face=&quot;Hack&quot;&gt;radprofile&lt;br&gt;&lt;/font&gt;" style="text;html=1;align=left;verticalAlign=middle;resizable=0;points=[];autosize=1;fillColor=#f2f6ff;" parent="nApI-rJWuCJ3Q17Jzmus-50" vertex="1">
          <mxGeometry x="33" y="4" width="82" height="18" as="geometry" />
        </mxCell>
        <mxCell id="nApI-rJWuCJ3Q17Jzmus-75" value="" style="endArrow=block;html=1;fontColor=#000000;rounded=0;strokeWidth=6;endFill=1;endSize=0;entryX=0.5;entryY=1;entryDx=0;entryDy=0;" parent="1" source="qs2e9YtNmmwjhikJrEBw-32" target="C2EvqtGhiyWC_0qhIHkO-21" edge="1">
          <mxGeometry width="50" height="50" relative="1" as="geometry">
            <mxPoint x="630.6600000000001" y="366.13599999999997" as="sourcePoint" />
            <mxPoint x="581" y="262.5" as="targetPoint" />
            <Array as="points">
              <mxPoint x="351" y="464" />
            </Array>
          </mxGeometry>
        </mxCell>
        <mxCell id="nApI-rJWuCJ3Q17Jzmus-76" value="" style="endArrow=block;html=1;fontColor=#000000;exitX=0.5;exitY=0;exitDx=0;exitDy=0;rounded=0;strokeWidth=6;endFill=1;endSize=0;entryX=0.16;entryY=0.998;entryDx=0;entryDy=0;entryPerimeter=0;" parent="1" source="qs2e9YtNmmwjhikJrEBw-19" target="QXpotxg9jiCfd9cfQt9x-4" edge="1">
          <mxGeometry width="50" height="50" relative="1" as="geometry">
            <mxPoint x="68" y="419" as="sourcePoint" />
            <mxPoint x="66.04000000000002" y="385.6640000000001" as="targetPoint" />
          </mxGeometry>
        </mxCell>
        <mxCell id="C2EvqtGhiyWC_0qhIHkO-13" value="" style="group" parent="1" vertex="1" connectable="0">
          <mxGeometry x="192" y="116" width="103" height="30" as="geometry" />
        </mxCell>
        <mxCell id="C2EvqtGhiyWC_0qhIHkO-14" value="" style="rounded=1;whiteSpace=wrap;html=1;fillColor=#E6E6E6;" parent="C2EvqtGhiyWC_0qhIHkO-13" vertex="1">
          <mxGeometry width="30" height="30" as="geometry" />
        </mxCell>
        <mxCell id="C2EvqtGhiyWC_0qhIHkO-15" value="" style="group" parent="C2EvqtGhiyWC_0qhIHkO-13" vertex="1" connectable="0">
          <mxGeometry x="7" y="7" width="16" height="16" as="geometry" />
        </mxCell>
        <mxCell id="C2EvqtGhiyWC_0qhIHkO-16" value="" style="group;aspect=fixed;connectable=0;editable=0;strokeColor=none;strokeWidth=2;fillColor=none;" parent="C2EvqtGhiyWC_0qhIHkO-15" vertex="1" connectable="0">
          <mxGeometry width="16" height="16" as="geometry" />
        </mxCell>
        <mxCell id="C2EvqtGhiyWC_0qhIHkO-17" value="" style="rounded=0;whiteSpace=wrap;html=1;strokeColor=none;aspect=fixed;fillColor=none;connectable=0;" parent="C2EvqtGhiyWC_0qhIHkO-16" vertex="1">
          <mxGeometry width="16" height="16" as="geometry" />
        </mxCell>
        <mxCell id="C2EvqtGhiyWC_0qhIHkO-18" value="" style="shape=image;aspect=fixed;image=data:image/svg+xml,PHN2ZyB4bWxucz0iaHR0cDovL3d3dy53My5vcmcvMjAwMC9zdmciIHZpZXdCb3g9IjAgMCA1MTIgNTEyIj48cGF0aCBkPSJNNDY0IDEyOEgyNzJsLTY0LTY0SDQ4QzIxLjQ5IDY0IDAgODUuNDkgMCAxMTJ2Mjg4YzAgMjYuNTEgMjEuNDkgNDggNDggNDhoNDE2YzI2LjUxIDAgNDgtMjEuNDkgNDgtNDhWMTc2YzAtMjYuNTEtMjEuNDktNDgtNDgtNDh6Ii8+PC9zdmc+;connectable=0;editable=0;movable=0;resizable=1;rotatable=0;cloneable=0;deletable=0;recursiveResize=0;imageBackground=none;noLabel=1;fontColor=none;" parent="C2EvqtGhiyWC_0qhIHkO-16" vertex="1">
          <mxGeometry width="16" height="16" as="geometry" />
        </mxCell>
        <mxCell id="C2EvqtGhiyWC_0qhIHkO-19" value="&lt;font face=&quot;Hack&quot;&gt;data&lt;br&gt;&lt;/font&gt;" style="text;html=1;align=left;verticalAlign=middle;resizable=0;points=[];autosize=1;fontColor=#000000;" parent="C2EvqtGhiyWC_0qhIHkO-13" vertex="1">
          <mxGeometry x="33" y="4" width="39" height="18" as="geometry" />
        </mxCell>
        <mxCell id="C2EvqtGhiyWC_0qhIHkO-43" value="" style="group" parent="1" vertex="1" connectable="0">
          <mxGeometry x="52" y="448" width="247.99999999999994" height="30" as="geometry" />
        </mxCell>
        <mxCell id="qs2e9YtNmmwjhikJrEBw-18" value="" style="group" parent="C2EvqtGhiyWC_0qhIHkO-43" vertex="1" connectable="0">
          <mxGeometry width="30" height="30" as="geometry" />
        </mxCell>
        <mxCell id="qs2e9YtNmmwjhikJrEBw-19" value="" style="rounded=1;whiteSpace=wrap;html=1;fillColor=#E6E6E6;" parent="qs2e9YtNmmwjhikJrEBw-18" vertex="1">
          <mxGeometry width="30" height="30" as="geometry" />
        </mxCell>
        <mxCell id="qs2e9YtNmmwjhikJrEBw-20" value="" style="group" parent="qs2e9YtNmmwjhikJrEBw-18" vertex="1" connectable="0">
          <mxGeometry x="7" y="7" width="16" height="16" as="geometry" />
        </mxCell>
        <mxCell id="qs2e9YtNmmwjhikJrEBw-21" value="" style="group;aspect=fixed;connectable=0;editable=0;strokeColor=none;strokeWidth=2;fillColor=none;" parent="qs2e9YtNmmwjhikJrEBw-20" vertex="1" connectable="0">
          <mxGeometry width="16" height="16" as="geometry" />
        </mxCell>
        <mxCell id="qs2e9YtNmmwjhikJrEBw-22" value="" style="shape=image;aspect=fixed;image=data:image/svg+xml,PHN2ZyB4bWxucz0iaHR0cDovL3d3dy53My5vcmcvMjAwMC9zdmciIHZpZXdCb3g9IjAgMCA1MTIgNTEyIj48cGF0aCBkPSJNNDY0IDEyOEgyNzJsLTY0LTY0SDQ4QzIxLjQ5IDY0IDAgODUuNDkgMCAxMTJ2Mjg4YzAgMjYuNTEgMjEuNDkgNDggNDggNDhoNDE2YzI2LjUxIDAgNDgtMjEuNDkgNDgtNDhWMTc2YzAtMjYuNTEtMjEuNDktNDgtNDgtNDh6Ii8+PC9zdmc+;connectable=0;editable=0;movable=0;resizable=1;rotatable=0;cloneable=0;deletable=0;recursiveResize=0;imageBackground=none;noLabel=1;fontColor=none;" parent="qs2e9YtNmmwjhikJrEBw-21" vertex="1">
          <mxGeometry width="16" height="16" as="geometry" />
        </mxCell>
        <mxCell id="qs2e9YtNmmwjhikJrEBw-23" value="" style="group" parent="qs2e9YtNmmwjhikJrEBw-21" vertex="1" connectable="0">
          <mxGeometry width="16" height="16" as="geometry" />
        </mxCell>
        <mxCell id="qs2e9YtNmmwjhikJrEBw-24" value="" style="rounded=0;whiteSpace=wrap;html=1;strokeColor=none;aspect=fixed;fillColor=none;connectable=0;" parent="qs2e9YtNmmwjhikJrEBw-23" vertex="1">
          <mxGeometry width="16" height="16" as="geometry" />
        </mxCell>
        <mxCell id="qs2e9YtNmmwjhikJrEBw-25" value="&lt;font face=&quot;Hack&quot;&gt;kernel&lt;/font&gt;" style="text;html=1;align=left;verticalAlign=middle;resizable=0;points=[];autosize=1;fontColor=#000000;" parent="C2EvqtGhiyWC_0qhIHkO-43" vertex="1">
          <mxGeometry x="33" y="6" width="53" height="18" as="geometry" />
        </mxCell>
        <mxCell id="qs2e9YtNmmwjhikJrEBw-27" value="" style="group" parent="C2EvqtGhiyWC_0qhIHkO-43" vertex="1" connectable="0">
          <mxGeometry x="79" y="3" width="168.99999999999994" height="25" as="geometry" />
        </mxCell>
        <mxCell id="qs2e9YtNmmwjhikJrEBw-28" value="" style="group" parent="qs2e9YtNmmwjhikJrEBw-27" vertex="1" connectable="0">
          <mxGeometry x="9.999999999999972" y="4" width="15.33" height="15.996521739130435" as="geometry" />
        </mxCell>
        <mxCell id="qs2e9YtNmmwjhikJrEBw-29" value="" style="shape=image;verticalLabelPosition=bottom;labelBackgroundColor=#ffffff;verticalAlign=top;aspect=fixed;imageAspect=0;image=data:image/svg+xml,PHN2ZyB4bWxuczpkYz0iaHR0cDovL3B1cmwub3JnL2RjL2VsZW1lbnRzLzEuMS8iIHhtbG5zOmNjPSJodHRwOi8vY3JlYXRpdmVjb21tb25zLm9yZy9ucyMiIHhtbG5zOnJkZj0iaHR0cDovL3d3dy53My5vcmcvMTk5OS8wMi8yMi1yZGYtc3ludGF4LW5zIyIgeG1sbnM6c3ZnPSJodHRwOi8vd3d3LnczLm9yZy8yMDAwL3N2ZyIgeG1sbnM9Imh0dHA6Ly93d3cudzMub3JnLzIwMDAvc3ZnIiB4bWxuczpzb2RpcG9kaT0iaHR0cDovL3NvZGlwb2RpLnNvdXJjZWZvcmdlLm5ldC9EVEQvc29kaXBvZGktMC5kdGQiIHhtbG5zOmlua3NjYXBlPSJodHRwOi8vd3d3Lmlua3NjYXBlLm9yZy9uYW1lc3BhY2VzL2lua3NjYXBlIiB3aWR0aD0iMjMuNDI4MDNtbSIgaGVpZ2h0PSIyMy42MDc5NThtbSIgdmlld0JveD0iMCAwIDgzLjAxMjcwNyA4My42NTAyNDQiIGlkPSJzdmcyIiB2ZXJzaW9uPSIxLjEiIGlua3NjYXBlOnZlcnNpb249IjEuMGJldGEyICgyYjcxZDI1LCAyMDE5LTEyLTAzKSIgc29kaXBvZGk6ZG9jbmFtZT0ibWl0c3ViYV9tb25vLnN2ZyIgaW5rc2NhcGU6ZXhwb3J0LWZpbGVuYW1lPSIvVXNlcnMvdmluY2VudC9QaWN0dXJlcy9hdmF0YXJzX2dpdGxhYi9pY29uX21pdHN1YmEucG5nIiBpbmtzY2FwZTpleHBvcnQteGRwaT0iMjE2Ljc1IiBpbmtzY2FwZTpleHBvcnQteWRwaT0iMjE2Ljc1Ij4mI3hhOyAgPGRlZnMgaWQ9ImRlZnM0Ii8+JiN4YTsgIDxzb2RpcG9kaTpuYW1lZHZpZXcgaWQ9ImJhc2UiIHBhZ2Vjb2xvcj0iI2ZmZmZmZiIgYm9yZGVyY29sb3I9IiM2NjY2NjYiIGJvcmRlcm9wYWNpdHk9IjEuMCIgaW5rc2NhcGU6cGFnZW9wYWNpdHk9IjAiIGlua3NjYXBlOnBhZ2VzaGFkb3c9IjIiIGlua3NjYXBlOnpvb209IjMuOTU5Nzk4IiBpbmtzY2FwZTpjeD0iMjUuNjI2NTA2IiBpbmtzY2FwZTpjeT0iODMuMTQxNTI5IiBpbmtzY2FwZTpkb2N1bWVudC11bml0cz0icHgiIGlua3NjYXBlOmN1cnJlbnQtbGF5ZXI9ImxheWVyMSIgc2hvd2dyaWQ9ImZhbHNlIiBmaXQtbWFyZ2luLXRvcD0iMCIgZml0LW1hcmdpbi1sZWZ0PSIwIiBmaXQtbWFyZ2luLXJpZ2h0PSIwIiBmaXQtbWFyZ2luLWJvdHRvbT0iMCIgaW5rc2NhcGU6d2luZG93LXdpZHRoPSIyNTYwIiBpbmtzY2FwZTp3aW5kb3ctaGVpZ2h0PSIxMzk1IiBpbmtzY2FwZTp3aW5kb3cteD0iMCIgaW5rc2NhcGU6d2luZG93LXk9IjIzIiBpbmtzY2FwZTp3aW5kb3ctbWF4aW1pemVkPSIxIiBpbmtzY2FwZTpkb2N1bWVudC1yb3RhdGlvbj0iMCIvPiYjeGE7ICA8bWV0YWRhdGEgaWQ9Im1ldGFkYXRhNyI+JiN4YTsgICAgPHJkZjpSREY+JiN4YTsgICAgICA8Y2M6V29yayByZGY6YWJvdXQ9IiI+JiN4YTsgICAgICAgIDxkYzpmb3JtYXQ+aW1hZ2Uvc3ZnK3htbDwvZGM6Zm9ybWF0PiYjeGE7ICAgICAgICA8ZGM6dHlwZSByZGY6cmVzb3VyY2U9Imh0dHA6Ly9wdXJsLm9yZy9kYy9kY21pdHlwZS9TdGlsbEltYWdlIi8+JiN4YTsgICAgICAgIDxkYzp0aXRsZS8+JiN4YTsgICAgICA8L2NjOldvcms+JiN4YTsgICAgPC9yZGY6UkRGPiYjeGE7ICA8L21ldGFkYXRhPiYjeGE7ICA8ZyBpbmtzY2FwZTpsYWJlbD0iTGF5ZXIgMSIgaW5rc2NhcGU6Z3JvdXBtb2RlPSJsYXllciIgaWQ9ImxheWVyMSIgdHJhbnNmb3JtPSJ0cmFuc2xhdGUoLTE0My41MTMzLC00NjguMzk3MTYpIj4mI3hhOyAgICA8cGF0aCBpbmtzY2FwZTpjb25uZWN0b3ItY3VydmF0dXJlPSIwIiBpZD0icGF0aDg1NCIgZD0ibSAxODMuOTY4NzYsNTQ2LjU3NDI5IGMgMC4yMzM3LC01Ljc3MjM3IDAuNTY1MTIsLTguODQ0MDcgMS4zNDk2NCwtMTIuNTA4ODMgMS43MDM0OSwtNy45NTc1OCAxLjg5MTMyLC0xNS4zMzE3OCAwLjQ3ODY5LC0xOC43OTM3MyAtMC4zNzUzLC0wLjkxOTc4IC0wLjM3NTM0LC0wLjkxOTcyIC0xLjMzNDY5LDIuMTQ2NjMgLTEuMDM2NTgsMy4zMTMyIC0yLjUzMzg5LDYuNzg1NzUgLTMuNTI3NzIsOC4xODE0NiAtMC40NTg3NSwwLjY0NDI0IC0wLjc4ODY3LDAuODM0MTcgLTEuMjU4NjEsMC43MjQ1NiAtMC41MTE5NiwtMC4xMTk0MyAtMC44MzIzOCwwLjE0MTQ0IC0xLjYzMzQxLDEuMzI5NzkgLTAuOTQ3NywxLjQwNTk2IC0yLjE3OTYyLDIuNjE0NTQgLTIuNjY1MDIsMi42MTQ1NCAtMC4xMjMyNiwwIC0wLjM2ODI0LC0wLjQxMzQ3IC0wLjU0NDQxLC0wLjkxODg0IGwgLTAuMzIwMzIsLTAuOTE4ODMgLTEuNjM1MzgsMS41NDY2OCBjIC0xLjE5MjkzLDEuMTI4MjIgLTEuNjk4NTksMS40NDQ0MiAtMS44Njg5OSwxLjE2ODcxIC0wLjE4Mjk3LC0wLjI5NjA2IC0wLjQ1MzE5LC0wLjI0MjI1IC0xLjI0Njk2LDAuMjQ4MzMgLTEuMTk0OTQsMC43Mzg1MSAtMi40MTYyOSwwLjgxMzgxIC0yLjY2NTUyLDAuMTY0MzMgLTAuMDk3NSwtMC4yNTQwOSAtMC4xNzcyOCwtMC45NzY5MyAtMC4xNzcyOCwtMS42MDYzMiAwLC0xLjEwODQ5IC0wLjM0MDYsLTEuNDgyNTcgLTAuNzQ4NjksLTAuODIyMjcgLTAuMzQxMTksMC41NTIwNiAtMy4xNDcsMS43MTY0OCAtNC4xNDMyNywxLjcxOTQ4IC0wLjg0MDg5LDAuMDAzIC0wLjk0OTQ2LC0wLjA4ODggLTAuOTUxNTUsLTAuODAwMzEgLTAuMDAyLC0wLjc4MDI5IC0wLjA1MTIsLTAuODA0MjYgLTEuNzE3MzgsLTAuODQxOTggLTIuNTExNzIsLTAuMDU2OSAtMy44MjkzNSwtMC41NTg3NSAtMy44MjkzNSwtMS40NTg2MiAwLC0wLjM5NzEgMC4xOTYyMSwtMS4xMDE0MiAwLjQzNjAyLC0xLjU2NTE2IDAuMjM5ODEsLTAuNDYzNzUgMC4zNTMwNywtMS4wNTkzMyAwLjI1MTY5LC0xLjMyMzUyIC0wLjEyODE2LC0wLjMzMzk5IDAuMzM0NTUsLTEuMDA0NjggMS41MTg2NywtMi4yMDEyOSAwLjkzNjY1LC0wLjk0NjUyIDEuNjQwMDcsLTEuNzgzODggMS41NjMxNSwtMS44NjA3OSAtMC4wNzY5LC0wLjA3NjkgLTEuMTIwOCwwLjEwMzYxIC0yLjMxOTc2LDAuNDAxMTcgLTEuMTk4OTUsMC4yOTc1NiAtMi42OTA1MiwwLjYyOTE5IC0zLjMxNDU5LDAuNzM2OTYgLTEuMDQ1NzgsMC4xODA1OSAtMS4xMjIyOCwwLjE0ODU2IC0wLjk3NjUzLC0wLjQwODgxIDAuMTI1NDUsLTAuNDc5NzMgMC4wMjE5LC0wLjYwNDc2IC0wLjUwMTA3LC0wLjYwNDc2IC0wLjg3NTgyLDAgLTIuNTQ0ODEsLTAuNTY3NzggLTMuMDQ5MTgsLTEuMDM3MzIgLTAuMzQxNSwtMC4zMTc5MiAtMC4yNTY1MywtMC42MTY4NCAwLjU0NjE0LC0xLjkyMTM1IDAuNjAxMzYsLTAuOTc3MzMgMC44MjYxMiwtMS41ODYzNCAwLjYxMTgxLC0xLjY1Nzc3IC0wLjE4NjMxLC0wLjA2MjEgLTEuMTU0OTIsLTAuNTI3MzUgLTIuMTUyNDYsLTEuMDMzODkgLTEuMzc1MzgsLTAuNjk4MzkgLTEuODEzNywtMS4wNzI2NyAtMS44MTM3LC0xLjU0ODcyIDAsLTAuMzQ1MjcgLTAuNDkyODUsLTEuMTA3MjkgLTEuMDk1MjIsLTEuNjkzMzkgLTAuNjU1OTQsLTAuNjM4MjIgLTEuMDk1MjEsLTEuMzQyNDMgLTEuMDk1MjEsLTEuNzU1NzUgMCwtMC44MzYzMSAxLjM4MzYsLTIuMDc0OTMgMi42MjE1MiwtMi4zNDY4MyAwLjk2Njg3LC0wLjIxMjM2IDEuMDE4ODQsLTAuMzM2OCAwLjYwMDM2LC0xLjQzNzQ4IC0wLjIzMTYsLTAuNjA5MTggLTAuMTgyMjEsLTAuNzk3NjcgMC4yNzI4NiwtMS4wNDEyMiAwLjMwNTYxLC0wLjE2MzU2IDAuODI3MTUsLTAuMjk3MzggMS4xNTg5OCwtMC4yOTczOCAwLjMzMTgyLDAgMC42MDMzMSwtMC4xMzE0MiAwLjYwMzMxLC0wLjI5MjA2IDAsLTAuMzg0NzggMi41MDg1NywtMC4zNzY4IDMuMjMxODQsMC4wMTAzIDAuNzA3ODksMC4zNzg4NiAwLjcwNTY3LDAuMjQyMzcgLTAuMDE5MiwtMS4xNzg1IC0wLjMyMTI3LC0wLjYyOTczIC0wLjU4NDEyLC0xLjUyMzQ0IC0wLjU4NDEyLC0xLjk4NjAyIDAsLTAuNzE5NTIgMC4xNjU1NywtMC44OTU3IDEuMTQ1NzMsLTEuMjE5MTkgMC42NTY2NSwtMC4yMTY3MSAxLjc5NDc0LC0wLjMxNTc2IDIuNjY2MTMsLTAuMjMyMDMgMS4zMDg1MiwwLjEyNTczIDEuNTQwMjUsMC4wNzAyIDEuNjYyODgsLTAuMzk4NzcgMC4yMDkyNSwtMC44MDAxOCAxLjM3Nzg3LC0wLjY4NzY0IDMuNTU1MTIsMC4zNDIzNyAxLjQ1MzkzLDAuNjg3ODIgMS45Mjc5NiwwLjgwMjQzIDIuMTEyOTUsMC41MTA4NyAwLjEzMTE3LC0wLjIwNjc0IDAuMjQwNSwtMC40NzQ0NiAwLjI0Mjk2LC0wLjU5NDkzIDAuMDExNiwtMC41NjYyOSAxLjMxMTY3LC0wLjA5ODYgMy4wNjczNCwxLjEwMzM1IDEuMDYyMzYsMC43MjczMSAyLjA1ODg5LDEuMjQzNyAyLjIxNDUyLDEuMTQ3NTEgMC4xNTU2MywtMC4wOTYyIDEuMTMxNSwwLjYwMjY1IDIuMTY4NiwxLjU1Mjk2IDIuMDE4ODcsMS44NDk5MyA3LjEwODczLDQuNjY4IDEwLjcxODYsNS45MzQ1IDMuMTk4NCwxLjEyMjEzIDMuMDcxOTQsMC4xMzM2MiAtMC4zMzY4OSwtMi42MzM1MyAtMS4yOTM1NywtMS4wNTAwNiAtMi43NzYyOCwtMS45NjM5NyAtMy42NTA3MiwtMi4yNTAyMSAtMi4zOTk4NSwtMC43ODU1NyAtNC42MTA0NCwtMi4wMTEzMiAtNi41NDk3MywtMy42MzE3NSAtMS4yODU1MSwtMS4wNzQxNSAtMS43MzA4NiwtMS42MTM5MyAtMS41MTIwOSwtMS44MzI3MSAwLjQ4MzYyLC0wLjQ4MzYyIDAuMzkwMDEsLTAuNjQ2OSAtMC44MzYwMiwtMS40NTgyNSAtMC42MzAzNywtMC40MTcxNiAtMS42MiwtMS4xNzQ1MyAtMi4xOTkxNywtMS42ODMwNSAtMS4wMTU5OCwtMC44OTIwNCAtMS4wMzY3MywtMC45NDk0OSAtMC41ODk0MywtMS42MzIxNCAwLjQ0MTkzLC0wLjY3NDQ4IDAuNDIxODQsLTAuNzU1MTMgLTAuNDI5ODksLTEuNzI1MiAtMS4xNDc2LC0xLjMwNzA0IC0yLjM1MjcsLTMuNjg1NDggLTIuMzUyNywtNC42NDMzNiAwLC0wLjUzNTYxIDAuMjI2NTksLTAuODQzNDIgMC44MDMxNSwtMS4wOTEwNCAwLjQ0MTc0LC0wLjE4OTcxIDAuODU1NTQsLTAuMzgxNjYgMC45MTk1NiwtMC40MjY1NCAwLjA2NCwtMC4wNDQ5IC0wLjE4NzgyLC0wLjY1NTA5IC0wLjU1OTY2LC0xLjM1NjAxIC0wLjc1MDM3LC0xLjQxNDQ3IC0wLjYzMjYyLC0yLjI0MDg2IDAuMzE5MzEsLTIuMjQwODYgMC40NTA0NCwwIDAuNTc0OTQsLTAuMTI5MjQgMC40NDY2MywtMC40NjM2MiAtMC4wOTc5LC0wLjI1NDk5IC0wLjI1NzM3LC0wLjk2MDU1IC0wLjM1NDQ5LC0xLjU2NzkxIC0wLjE0OTY2LC0wLjkzNTg4IC0wLjA3MjgsLTEuMTc2OTYgMC41MDM3LC0xLjU4MDc4IDAuODkyMTUsLTAuNjI0OSAxLjY3NjUzLC0wLjYwMTA5IDMuNTQwNzcsMC4xMDc0NyAwLjg0NTA0LDAuMzIxMTkgMS41NjUxNywwLjU4NDA0IDEuNjAwMjgsMC41ODQxMiAwLjA5MTIsMi4xZS00IC0wLjE4MTk1LC0wLjc5NDI2IC0wLjg3NjkyLC0yLjU1MDczIC0wLjQ4MDcsLTEuMjE0OTIgLTAuNTM4NTcsLTEuNjY0NTEgLTAuMjgxOTcsLTIuMTkwNDMgMC4xNzc1OCwtMC4zNjM5NyAwLjQwMTUxLC0xLjE0MTQgMC40OTc2NCwtMS43Mjc2MyAwLjI3MDAyLC0xLjY0NjczIDAuODYwMjgsLTEuOTY4NTQgMi4xOTgyNiwtMS4xOTg0OSBsIDEuMTAwNTEsMC42MzMzNyAwLjE1MDUsLTEuMzM1MjggYyAwLjMwNzM5LC0yLjcyNzE3IDIuMTEyNTgsLTMuNzk2NTEgMy43MTA4NywtMi4xOTgyMiBsIDAuODYyMDMsMC44NjIwMyAwLjY4OTE4LC0wLjg5MzY4IGMgMC44NDA4MywtMS4wOTAzMiAxLjMyOTU2LC0wLjk2Mzg2IDIuNDk1NTYsMC42NDU3NiAwLjQ2Njk4LDAuNjQ0NjUgMC45MjM3OCwxLjA5NzM2IDEuMDE1MSwxLjAwNjAzIDAuMjk3NjYsLTAuMjk3NjYgMC41NzA3MywxLjkzNjIyIDAuMzgxNDEsMy4xMjAxNSAtMC4xMDE1MiwwLjYzNDg5IC0wLjA4NDUsMS4xNDkyMiAwLjAzNzksMS4xNDI5NiAwLjEyMjM4LC0wLjAwNiAwLjY2MDAxLC0wLjYwNTkzIDEuMTk0NzUsLTEuMzMyNTggMS4wMDM2MiwtMS4zNjM4MSAyLjQ2NjI0LC0yLjQ0OTc4IDMuMzAyMDEsLTIuNDUxNjkgMC42MjI2NiwtMC4wMDEgMS40MjA4NiwxLjIzMzAyIDEuNDIwODYsMi4xOTc0MiAwLDAuNjE5MjUgMC4xMjA4NCwwLjc0MTk4IDAuNjU3MTMsMC42Njc0MSAwLjYzMjg4LC0wLjA4OCAwLjY2MDI0LDAuMDAzIDAuNzQxMzgsMi40NTQ1OCBsIDAuMDg0MiwyLjU0NTk2IDAuOTM3OTYsLTAuMTk5NTMgYyAwLjUxNTg3LC0wLjEwOTc0IDEuMzMyMjMsLTAuMjA0MDEgMS44MTQxMiwtMC4yMDk0OSAwLjg0NTgzLC0wLjAxIDAuODc5MzYsMC4wNDA1IDAuOTY4MDksMS40NDgyIDAuMDUwNSwwLjgwMTk5IDAuMjk4MjIsMS42ODYxNCAwLjU1MDM5LDEuOTY0NzggMC41Nzg1NywwLjYzOTMyIDAuMzU5MjksMi4yMzg4NiAtMC40NjU3NywzLjM5NzU2IGwgLTAuNTg5NDMsMC44Mjc3OCAwLjg5Mzg2LDAuNjYwODYgYyAwLjc2NDg5LDAuNTY1NTEgMC44Njc3MywwLjc5MTUxIDAuNzEyNzUsMS41NjY0MSAtMC4wOTk2LDAuNDk4MDYgLTAuNTY2MjIsMS40OTc1OCAtMS4wMzY5LDIuMjIxMTcgLTAuNjI3ODEsMC45NjUxMSAtMC43NzM0NCwxLjQxNDg0IC0wLjU0NjY1LDEuNjg4MTEgMC4zOTcxNSwwLjQ3ODUzIDAuMjU5ODUsMC44MDcyOSAtMS4zNzA4OCwzLjI4MjU5IC0wLjc0MjA3LDEuMTI2MzkgLTEuMjgxOTYsMi4xNTY4MiAtMS4xOTk3NSwyLjI4OTg0IDAuMDgyMiwwLjEzMzAyIC0wLjgyNTQsMS42ODA1IC0yLjAxNjkyLDMuNDM4ODUgbCAtMi4xNjYzOSwzLjE5Njk5IC0wLjAwNiwyLjI3MzcyIGMgLTAuMDA2LDIuMjU3NzkgLTAuMDAxLDIuMjcxMyAwLjY0MTM5LDEuOTI3MzUgMi4zNTY3NSwtMS4yNjEyOSA3LjgyMjQ3LC04Ljk3NTg1IDcuODIyNDcsLTExLjA0MDk3IDAsLTAuODUwNDggMC42MiwtMi4wNjc4NSAxLjA1MzE1LC0yLjA2Nzg1IDAuMjA2NDEsMCAwLjg2MDU4LC0wLjkyMzUyIDEuNDUzNzIsLTIuMDUyMjYgMC41OTMxMywtMS4xMjg3NSAxLjU3MjUyLC0yLjYwNzI5IDIuMTc2NDIsLTMuMjg1NjUgbCAxLjA5Nzk4LC0xLjIzMzM5IDAuODk0MjksMC42NTcxMyBjIDAuNDkxODUsMC4zNjE0MiAwLjk5ODE3LDAuNjU2NjQgMS4xMjUxNSwwLjY1NjA0IDAuMTI2OTgsLTUuOWUtNCAwLjQ3NDA3LC0wLjU5MjQ4IDAuNzcxMzIsLTEuMzE1MjcgMC43MjMzOCwtMS43NTkwMSAyLjk1ODUxLC0zLjc1MDAzIDMuOTM0NzQsLTMuNTA1MDEgMC40MjczMSwwLjEwNzI1IDAuODkyMDgsMC4wMTAzIDEuMTgxMjYsLTAuMjQ2NDIgMC40MDQwMSwtMC4zNTg2NyAyLjM4MTc1LC0xLjA1ODUyIDMuMDA2MiwtMS4wNjM3OSAwLjQ2MzM3LC0wLjAwNCAxLjQxMzMzLDIuNjE4OTMgMS40MTMzMywzLjkwMjIgdiAxLjM4Mjk0IGwgMC45NjE1MSwtMC43MzMzOCBjIDEuMzY5OTMsLTEuMDQ0OSAzLjkyMDQsLTIuMTQxNTkgNS41MTYwMywtMi4zNzE4NyBsIDEuMzY2NTIsLTAuMTk3MjEgMC4wOTM4LDAuOTQ0NTIgMC4wOTM4LDAuOTQ0NTIgMi4xNDUxLDAuMDQwNCBjIDEuNzQ5NjIsMC4wMzI5IDIuMjIwNzYsMC4xNDM4NSAyLjU1NTUsMC42MDE2NCAwLjU2NTI0LDAuNzczMDEgMC41MDM1NywyLjExNDQ5IC0wLjE2NDg5LDMuNTg3MTIgLTAuNTU2MjIsMS4yMjUzNCAtMC41NTYxNSwxLjI0MjUgMC4wMDYsMS41NDM1NyAwLjkyMDU2LDAuNDkyNjggMC42NzU5NSwxLjA5OTE0IC0xLjI1Mzk4LDMuMTA4OTYgbCAtMS44MjI4NywxLjg5ODMzIDAuODczMjUsMC42MzE5IGMgMi4xMjc5MiwxLjUzOTc5IDIuNTc4NywyLjA5Mjk4IDIuMjMyNTcsMi43Mzk3MyAtMC4xNzk0OSwwLjMzNTM3IC0wLjg1NDI4LDEuMDI3OSAtMS40OTk1MywxLjUzODk2IC0wLjY0NTI2LDAuNTExMDUgLTEuMTczMTksMS4xNzgzMiAtMS4xNzMxOSwxLjQ4MjgyIDAsMC43NDIzMSAtMS43ODUwMywxLjYyNTc3IC00LjM5MzU2LDIuMTc0NDkgLTEuMTM4NDUsMC4yMzk0OCAtMi4xMjcwMywwLjQzNTQyIC0yLjE5Njg0LDAuNDM1NDIgLTAuMDY5OCwwIC0wLjEyNjk0LDAuMTMxNDMgLTAuMTI2OTQsMC4yOTIwNiAwLDAuMTYwNjMgMC4yNDkwMSwwLjI5MjA2IDAuNTUzMzUsMC4yOTIwNiAxLjAwNjg3LDAgNC40Mzk4OCwxLjE5NDA2IDQuNTk0OTYsMS41OTgyMSAwLjA4MzgsMC4yMTgzMiAwLjY2ODIyLDAuOTM5MjYgMS4yOTg3NiwxLjYwMjA5IDEuMzE2MzYsMS4zODM3OSAxLjM3NTQyLDEuNjg2ODUgMC41MzY1MywyLjc1MzMyIC0wLjczNTIyLDAuOTM0NjggLTEuODA0MSwxLjUxODM3IC0zLjI5MTQ5LDEuNzk3NDEgLTEuMDg5NCwwLjIwNDM3IC0xLjEwNTE5LDAuMjI2NCAtMS4wMTIxMSwxLjQxMjMxIGwgMC4wOTQ1LDEuMjA0NyAtMi4wOTE5NywwLjA4NTMgYyAtMS4xNzE4NiwwLjA0NzggLTIuOTQ2MDksLTAuMTEyNzkgLTQuMDMzOTEsLTAuMzY1MDcgLTEuMDY4MDcsLTAuMjQ3NyAtMi4wNTU5NiwtMC40NTAzNyAtMi4xOTUzMiwtMC40NTAzNyAtMC4xMzkzNiwwIDAuMDUxMywwLjU1ODU2IDAuNDIzNjEsMS4yNDEyNSAwLjM3MjM1LDAuNjgyNjggMC44Mzc3NCwxLjc0NzYgMS4wMzQyMSwyLjM2NjQ4IDAuNDI0NjMsMS4zMzc2MiAwLjAwNiwxLjk3MjY2IC0xLjM1NzMzLDIuMDYwMTggLTAuNDU4MTksMC4wMjk0IC0xLjI0NDYsMC4yNzI4NiAtMS43NDc1NywwLjU0MSAtMC45NDQxOCwwLjUwMzM2IC0xLjg4MjA4LDAuNDAxOTcgLTMuMjk5NjgsLTAuMzU2NyAtMC41NTcxMywtMC4yOTgxNyAtMC43Mzk2MSwtMC4yNDI5MiAtMS4zNDEwMiwwLjQwNjAyIC0wLjM4Mjg4LDAuNDEzMTMgLTAuODAwOTksMC43NDg3NyAtMC45MjkxNCwwLjc0NTg2IC0wLjEyODE0LC0wLjAwMyAtMC45NDMsLTAuMzk2NjYgLTEuODEwOCwtMC44NzQ5OSAtMS4wNzY5MSwtMC41OTM2MSAtMS42ODcwMywtMC43NzkwNiAtMS45MjE4NiwtMC41ODQxNyAtMC4yMzkwNywwLjE5ODQxIC0wLjU5ODYzLDAuMDE5OCAtMS4xNzgzNiwtMC41ODUyOSAtMC45NTkyNiwtMS4wMDEyNSAtMS4yMDkwOCwtMS4wNTE5MiAtMS45MzcyNCwtMC4zOTI5NCAtMC41ODg0OCwwLjUzMjU2IC0wLjU4NzEsMC41MzM2NyAtMi42NTYxMSwtMi4xNDgxOSAtMC41MjI4NSwtMC42Nzc3MiAtMS4xNzEwOCwtMS4yMzYyOCAtMS40NDA1MywtMS4yNDEyNSAtMC42NTQ4NiwtMC4wMTIxIC0xLjYyMTc2LC0xLjI4NDY2IC0yLjA0MjE0LC0yLjY4Nzc4IC0wLjM5MzQzLC0xLjMxMzEzIC0xLjQ1MzgxLC0yLjU3ODI4IC0yLjE2MDk4LC0yLjU3ODI4IC0wLjM5MDE4LDAgLTAuNDQxNjMsMC4xNTg0NSAtMC4yNjA3OCwwLjgwMzE2IDAuMzM0MTUsMS4xOTExNiAwLjQyNDc0LDkuMzE3MjcgMC4xMjQ1MywxMS4xNzExOSAtMS43MDUzNiwxMC41MzE1MyAtMi42MDQ4NCwxOC43NTg1OCAtMi41MDY1OSwyMi45MjY1MiAwLjAzMzEsMS40MDI3OSAxMGUtNCwxLjQ2NDA4IC0wLjgwOTk1LDEuNTU2NjcgbCAtMC44NDQzOCwwLjA5NjQgeiIgc3R5bGU9ImZpbGw6IzAwMDAwMDtmaWxsLW9wYWNpdHk6MTtzdHJva2U6IzAwMDAwMDtzdHJva2Utd2lkdGg6MS4yNTtzdHJva2UtbWl0ZXJsaW1pdDo0O3N0cm9rZS1kYXNoYXJyYXk6bm9uZTtzdHJva2Utb3BhY2l0eToxIi8+JiN4YTsgIDwvZz4mI3hhOzwvc3ZnPg==;" parent="qs2e9YtNmmwjhikJrEBw-28" vertex="1">
          <mxGeometry width="15.33" height="15.996521739130435" as="geometry" />
        </mxCell>
        <mxCell id="qs2e9YtNmmwjhikJrEBw-30" value="&lt;font style=&quot;font-size: 18px&quot;&gt;[&lt;/font&gt;" style="text;html=1;align=center;verticalAlign=middle;resizable=0;points=[];autosize=1;" parent="qs2e9YtNmmwjhikJrEBw-27" vertex="1">
          <mxGeometry width="15" height="20" as="geometry" />
        </mxCell>
        <mxCell id="qs2e9YtNmmwjhikJrEBw-31" value="&lt;font style=&quot;font-size: 18px&quot;&gt;]&lt;/font&gt;" style="text;html=1;align=center;verticalAlign=middle;resizable=0;points=[];autosize=1;" parent="qs2e9YtNmmwjhikJrEBw-27" vertex="1">
          <mxGeometry x="146.99999999999997" width="15" height="20" as="geometry" />
        </mxCell>
        <mxCell id="qs2e9YtNmmwjhikJrEBw-32" value="&lt;b&gt;&lt;font face=&quot;Helvetica&quot; style=&quot;font-size: 12px&quot;&gt;MODIFIED MITSUBA 3&lt;/font&gt;&lt;/b&gt;" style="text;html=1;align=left;verticalAlign=middle;resizable=0;points=[];autosize=1;fontColor=#000000;" parent="qs2e9YtNmmwjhikJrEBw-27" vertex="1">
          <mxGeometry x="24.999999999999943" y="-1" width="144" height="26" as="geometry" />
        </mxCell>
        <mxCell id="QXpotxg9jiCfd9cfQt9x-41" value="" style="rounded=1;whiteSpace=wrap;html=1;fillColor=#E6E6E6;" parent="1" vertex="1">
          <mxGeometry x="24" y="182" width="30" height="30" as="geometry" />
        </mxCell>
        <mxCell id="QXpotxg9jiCfd9cfQt9x-42" value="" style="group" parent="1" vertex="1" connectable="0">
          <mxGeometry x="31" y="189" width="16" height="16" as="geometry" />
        </mxCell>
        <mxCell id="QXpotxg9jiCfd9cfQt9x-43" value="" style="group;aspect=fixed;connectable=0;editable=0;strokeColor=none;strokeWidth=2;fillColor=none;" parent="QXpotxg9jiCfd9cfQt9x-42" vertex="1" connectable="0">
          <mxGeometry width="16" height="16" as="geometry" />
        </mxCell>
        <mxCell id="QXpotxg9jiCfd9cfQt9x-44" value="" style="rounded=0;whiteSpace=wrap;html=1;strokeColor=none;aspect=fixed;fillColor=none;connectable=0;" parent="QXpotxg9jiCfd9cfQt9x-43" vertex="1">
          <mxGeometry width="16" height="16" as="geometry" />
        </mxCell>
        <mxCell id="QXpotxg9jiCfd9cfQt9x-45" value="" style="shape=image;aspect=fixed;image=data:image/svg+xml,PHN2ZyB4bWxucz0iaHR0cDovL3d3dy53My5vcmcvMjAwMC9zdmciIHZpZXdCb3g9IjAgMCA1MTIgNTEyIj48cGF0aCBkPSJNNDY0IDEyOEgyNzJsLTY0LTY0SDQ4QzIxLjQ5IDY0IDAgODUuNDkgMCAxMTJ2Mjg4YzAgMjYuNTEgMjEuNDkgNDggNDggNDhoNDE2YzI2LjUxIDAgNDgtMjEuNDkgNDgtNDhWMTc2YzAtMjYuNTEtMjEuNDktNDgtNDgtNDh6Ii8+PC9zdmc+;connectable=0;editable=0;movable=0;resizable=1;rotatable=0;cloneable=0;deletable=0;recursiveResize=0;imageBackground=none;noLabel=1;fontColor=none;" parent="QXpotxg9jiCfd9cfQt9x-43" vertex="1">
          <mxGeometry width="16" height="16" as="geometry" />
        </mxCell>
        <mxCell id="QXpotxg9jiCfd9cfQt9x-46" value="&lt;font face=&quot;Hack&quot;&gt;scenes&lt;/font&gt;" style="text;html=1;align=left;verticalAlign=middle;resizable=0;points=[];autosize=1;fontColor=#000000;" parent="1" vertex="1">
          <mxGeometry x="57" y="185" width="60" height="20" as="geometry" />
        </mxCell>
        <mxCell id="QXpotxg9jiCfd9cfQt9x-18" value="&lt;font face=&quot;Hack&quot;&gt;biosphere&lt;/font&gt;" style="text;html=1;align=left;verticalAlign=middle;resizable=0;points=[];autosize=1;container=0;" parent="1" vertex="1">
          <mxGeometry x="198.7500000000001" y="272" width="75" height="18" as="geometry" />
        </mxCell>
        <mxCell id="QXpotxg9jiCfd9cfQt9x-54" value="&lt;font face=&quot;Hack&quot;&gt;core&lt;/font&gt;" style="text;html=1;align=left;verticalAlign=middle;resizable=0;points=[];autosize=1;container=0;" parent="1" vertex="1">
          <mxGeometry x="65.75" y="232" width="39" height="18" as="geometry" />
        </mxCell>
        <mxCell id="QXpotxg9jiCfd9cfQt9x-71" value="&lt;font face=&quot;Hack&quot;&gt;atmosphere&lt;/font&gt;" style="text;html=1;align=left;verticalAlign=middle;resizable=0;points=[];autosize=1;fontColor=#000000;container=0;" parent="1" vertex="1">
          <mxGeometry x="198" y="231.5" width="82" height="18" as="geometry" />
        </mxCell>
        <mxCell id="QXpotxg9jiCfd9cfQt9x-6" value="&lt;font face=&quot;Hack&quot;&gt;illumination&lt;/font&gt;" style="text;html=1;align=left;verticalAlign=middle;resizable=0;points=[];autosize=1;container=0;" parent="1" vertex="1">
          <mxGeometry x="65.75000000000011" y="271" width="100" height="20" as="geometry" />
        </mxCell>
        <mxCell id="QXpotxg9jiCfd9cfQt9x-12" value="&lt;font face=&quot;Hack&quot;&gt;measure&lt;/font&gt;" style="text;html=1;align=left;verticalAlign=middle;resizable=0;points=[];autosize=1;container=0;" parent="1" vertex="1">
          <mxGeometry x="65.75000000000011" y="311" width="70" height="20" as="geometry" />
        </mxCell>
        <mxCell id="QXpotxg9jiCfd9cfQt9x-73" value="&lt;font face=&quot;Hack&quot;&gt;spectra&lt;/font&gt;" style="text;html=1;align=left;verticalAlign=middle;resizable=0;points=[];autosize=1;container=0;" parent="1" vertex="1">
          <mxGeometry x="65.75000000000011" y="353" width="61" height="18" as="geometry" />
        </mxCell>
        <mxCell id="QXpotxg9jiCfd9cfQt9x-30" value="&lt;font face=&quot;Hack&quot;&gt;surface&lt;/font&gt;" style="text;html=1;align=left;verticalAlign=middle;resizable=0;points=[];autosize=1;container=0;" parent="1" vertex="1">
          <mxGeometry x="198.75" y="311" width="61" height="18" as="geometry" />
        </mxCell>
        <mxCell id="C2EvqtGhiyWC_0qhIHkO-7" value="&lt;font face=&quot;Hack&quot;&gt;integrators&lt;/font&gt;" style="text;html=1;align=left;verticalAlign=middle;resizable=0;points=[];autosize=1;container=0;" parent="1" vertex="1">
          <mxGeometry x="198.7500000000001" y="350" width="89" height="18" as="geometry" />
        </mxCell>
        <mxCell id="C2EvqtGhiyWC_0qhIHkO-26" value="&lt;font face=&quot;Hack&quot;&gt;experiments&lt;br&gt;&lt;/font&gt;" style="text;html=1;align=left;verticalAlign=middle;resizable=0;points=[];autosize=1;fontColor=#000000;" parent="1" vertex="1">
          <mxGeometry x="368.5" y="345" width="89" height="18" as="geometry" />
        </mxCell>
        <mxCell id="L99Kusbpt5Ot0ZVRhMrV-19" value="" style="group" parent="1" vertex="1" connectable="0">
          <mxGeometry x="335.5" y="342" width="30" height="30" as="geometry" />
        </mxCell>
        <mxCell id="C2EvqtGhiyWC_0qhIHkO-21" value="" style="rounded=1;whiteSpace=wrap;html=1;fillColor=#E6E6E6;" parent="L99Kusbpt5Ot0ZVRhMrV-19" vertex="1">
          <mxGeometry width="30" height="30" as="geometry" />
        </mxCell>
        <mxCell id="C2EvqtGhiyWC_0qhIHkO-22" value="" style="group" parent="L99Kusbpt5Ot0ZVRhMrV-19" vertex="1" connectable="0">
          <mxGeometry x="7" y="7" width="16" height="16" as="geometry" />
        </mxCell>
        <mxCell id="C2EvqtGhiyWC_0qhIHkO-23" value="" style="group;aspect=fixed;connectable=0;editable=0;strokeColor=none;strokeWidth=2;fillColor=none;" parent="C2EvqtGhiyWC_0qhIHkO-22" vertex="1" connectable="0">
          <mxGeometry width="16" height="16" as="geometry" />
        </mxCell>
        <mxCell id="C2EvqtGhiyWC_0qhIHkO-24" value="" style="rounded=0;whiteSpace=wrap;html=1;strokeColor=none;aspect=fixed;fillColor=none;connectable=0;" parent="C2EvqtGhiyWC_0qhIHkO-23" vertex="1">
          <mxGeometry width="16" height="16" as="geometry" />
        </mxCell>
        <mxCell id="C2EvqtGhiyWC_0qhIHkO-25" value="" style="shape=image;aspect=fixed;image=data:image/svg+xml,PHN2ZyB4bWxucz0iaHR0cDovL3d3dy53My5vcmcvMjAwMC9zdmciIHZpZXdCb3g9IjAgMCA1MTIgNTEyIj48cGF0aCBkPSJNNDY0IDEyOEgyNzJsLTY0LTY0SDQ4QzIxLjQ5IDY0IDAgODUuNDkgMCAxMTJ2Mjg4YzAgMjYuNTEgMjEuNDkgNDggNDggNDhoNDE2YzI2LjUxIDAgNDgtMjEuNDkgNDgtNDhWMTc2YzAtMjYuNTEtMjEuNDktNDgtNDgtNDh6Ii8+PC9zdmc+;connectable=0;editable=0;movable=0;resizable=1;rotatable=0;cloneable=0;deletable=0;recursiveResize=0;imageBackground=none;noLabel=1;fontColor=none;" parent="C2EvqtGhiyWC_0qhIHkO-23" vertex="1">
          <mxGeometry width="16" height="16" as="geometry" />
        </mxCell>
        <mxCell id="L99Kusbpt5Ot0ZVRhMrV-26" value="" style="group" parent="1" vertex="1" connectable="0">
          <mxGeometry x="165" y="267" width="30" height="30" as="geometry" />
        </mxCell>
        <mxCell id="L99Kusbpt5Ot0ZVRhMrV-27" value="" style="rounded=1;whiteSpace=wrap;html=1;fillColor=#E6E6E6;" parent="L99Kusbpt5Ot0ZVRhMrV-26" vertex="1">
          <mxGeometry width="30" height="30" as="geometry" />
        </mxCell>
        <mxCell id="L99Kusbpt5Ot0ZVRhMrV-28" value="" style="group" parent="L99Kusbpt5Ot0ZVRhMrV-26" vertex="1" connectable="0">
          <mxGeometry x="7" y="7" width="16" height="16" as="geometry" />
        </mxCell>
        <mxCell id="L99Kusbpt5Ot0ZVRhMrV-29" value="" style="group;aspect=fixed;connectable=0;editable=0;strokeColor=none;strokeWidth=2;fillColor=none;" parent="L99Kusbpt5Ot0ZVRhMrV-28" vertex="1" connectable="0">
          <mxGeometry width="16" height="16" as="geometry" />
        </mxCell>
        <mxCell id="L99Kusbpt5Ot0ZVRhMrV-30" value="" style="rounded=0;whiteSpace=wrap;html=1;strokeColor=none;aspect=fixed;fillColor=none;connectable=0;" parent="L99Kusbpt5Ot0ZVRhMrV-29" vertex="1">
          <mxGeometry width="16" height="16" as="geometry" />
        </mxCell>
        <mxCell id="L99Kusbpt5Ot0ZVRhMrV-31" value="" style="shape=image;aspect=fixed;image=data:image/svg+xml,PHN2ZyB4bWxucz0iaHR0cDovL3d3dy53My5vcmcvMjAwMC9zdmciIHZpZXdCb3g9IjAgMCA1MTIgNTEyIj48cGF0aCBkPSJNNDY0IDEyOEgyNzJsLTY0LTY0SDQ4QzIxLjQ5IDY0IDAgODUuNDkgMCAxMTJ2Mjg4YzAgMjYuNTEgMjEuNDkgNDggNDggNDhoNDE2YzI2LjUxIDAgNDgtMjEuNDkgNDgtNDhWMTc2YzAtMjYuNTEtMjEuNDktNDgtNDgtNDh6Ii8+PC9zdmc+;connectable=0;editable=0;movable=0;resizable=1;rotatable=0;cloneable=0;deletable=0;recursiveResize=0;imageBackground=none;noLabel=1;fontColor=none;" parent="L99Kusbpt5Ot0ZVRhMrV-29" vertex="1">
          <mxGeometry width="16" height="16" as="geometry" />
        </mxCell>
        <mxCell id="L99Kusbpt5Ot0ZVRhMrV-32" value="" style="group" parent="1" vertex="1" connectable="0">
          <mxGeometry x="165" y="306" width="30" height="30" as="geometry" />
        </mxCell>
        <mxCell id="L99Kusbpt5Ot0ZVRhMrV-33" value="" style="rounded=1;whiteSpace=wrap;html=1;fillColor=#E6E6E6;" parent="L99Kusbpt5Ot0ZVRhMrV-32" vertex="1">
          <mxGeometry width="30" height="30" as="geometry" />
        </mxCell>
        <mxCell id="L99Kusbpt5Ot0ZVRhMrV-34" value="" style="group" parent="L99Kusbpt5Ot0ZVRhMrV-32" vertex="1" connectable="0">
          <mxGeometry x="7" y="7" width="16" height="16" as="geometry" />
        </mxCell>
        <mxCell id="L99Kusbpt5Ot0ZVRhMrV-35" value="" style="group;aspect=fixed;connectable=0;editable=0;strokeColor=none;strokeWidth=2;fillColor=none;" parent="L99Kusbpt5Ot0ZVRhMrV-34" vertex="1" connectable="0">
          <mxGeometry width="16" height="16" as="geometry" />
        </mxCell>
        <mxCell id="L99Kusbpt5Ot0ZVRhMrV-36" value="" style="rounded=0;whiteSpace=wrap;html=1;strokeColor=none;aspect=fixed;fillColor=none;connectable=0;" parent="L99Kusbpt5Ot0ZVRhMrV-35" vertex="1">
          <mxGeometry width="16" height="16" as="geometry" />
        </mxCell>
        <mxCell id="L99Kusbpt5Ot0ZVRhMrV-37" value="" style="shape=image;aspect=fixed;image=data:image/svg+xml,PHN2ZyB4bWxucz0iaHR0cDovL3d3dy53My5vcmcvMjAwMC9zdmciIHZpZXdCb3g9IjAgMCA1MTIgNTEyIj48cGF0aCBkPSJNNDY0IDEyOEgyNzJsLTY0LTY0SDQ4QzIxLjQ5IDY0IDAgODUuNDkgMCAxMTJ2Mjg4YzAgMjYuNTEgMjEuNDkgNDggNDggNDhoNDE2YzI2LjUxIDAgNDgtMjEuNDkgNDgtNDhWMTc2YzAtMjYuNTEtMjEuNDktNDgtNDgtNDh6Ii8+PC9zdmc+;connectable=0;editable=0;movable=0;resizable=1;rotatable=0;cloneable=0;deletable=0;recursiveResize=0;imageBackground=none;noLabel=1;fontColor=none;" parent="L99Kusbpt5Ot0ZVRhMrV-35" vertex="1">
          <mxGeometry width="16" height="16" as="geometry" />
        </mxCell>
        <mxCell id="L99Kusbpt5Ot0ZVRhMrV-38" value="" style="group" parent="1" vertex="1" connectable="0">
          <mxGeometry x="165" y="345" width="30" height="30" as="geometry" />
        </mxCell>
        <mxCell id="L99Kusbpt5Ot0ZVRhMrV-39" value="" style="rounded=1;whiteSpace=wrap;html=1;fillColor=#E6E6E6;" parent="L99Kusbpt5Ot0ZVRhMrV-38" vertex="1">
          <mxGeometry width="30" height="30" as="geometry" />
        </mxCell>
        <mxCell id="L99Kusbpt5Ot0ZVRhMrV-40" value="" style="group" parent="L99Kusbpt5Ot0ZVRhMrV-38" vertex="1" connectable="0">
          <mxGeometry x="7" y="7" width="16" height="16" as="geometry" />
        </mxCell>
        <mxCell id="L99Kusbpt5Ot0ZVRhMrV-41" value="" style="group;aspect=fixed;connectable=0;editable=0;strokeColor=none;strokeWidth=2;fillColor=none;" parent="L99Kusbpt5Ot0ZVRhMrV-40" vertex="1" connectable="0">
          <mxGeometry width="16" height="16" as="geometry" />
        </mxCell>
        <mxCell id="L99Kusbpt5Ot0ZVRhMrV-42" value="" style="rounded=0;whiteSpace=wrap;html=1;strokeColor=none;aspect=fixed;fillColor=none;connectable=0;" parent="L99Kusbpt5Ot0ZVRhMrV-41" vertex="1">
          <mxGeometry width="16" height="16" as="geometry" />
        </mxCell>
        <mxCell id="L99Kusbpt5Ot0ZVRhMrV-43" value="" style="shape=image;aspect=fixed;image=data:image/svg+xml,PHN2ZyB4bWxucz0iaHR0cDovL3d3dy53My5vcmcvMjAwMC9zdmciIHZpZXdCb3g9IjAgMCA1MTIgNTEyIj48cGF0aCBkPSJNNDY0IDEyOEgyNzJsLTY0LTY0SDQ4QzIxLjQ5IDY0IDAgODUuNDkgMCAxMTJ2Mjg4YzAgMjYuNTEgMjEuNDkgNDggNDggNDhoNDE2YzI2LjUxIDAgNDgtMjEuNDkgNDgtNDhWMTc2YzAtMjYuNTEtMjEuNDktNDgtNDgtNDh6Ii8+PC9zdmc+;connectable=0;editable=0;movable=0;resizable=1;rotatable=0;cloneable=0;deletable=0;recursiveResize=0;imageBackground=none;noLabel=1;fontColor=none;" parent="L99Kusbpt5Ot0ZVRhMrV-41" vertex="1">
          <mxGeometry width="16" height="16" as="geometry" />
        </mxCell>
        <mxCell id="L99Kusbpt5Ot0ZVRhMrV-44" value="" style="group" parent="1" vertex="1" connectable="0">
          <mxGeometry x="34" y="227" width="30" height="30" as="geometry" />
        </mxCell>
        <mxCell id="L99Kusbpt5Ot0ZVRhMrV-45" value="" style="rounded=1;whiteSpace=wrap;html=1;fillColor=#E6E6E6;" parent="L99Kusbpt5Ot0ZVRhMrV-44" vertex="1">
          <mxGeometry width="30" height="30" as="geometry" />
        </mxCell>
        <mxCell id="L99Kusbpt5Ot0ZVRhMrV-46" value="" style="group" parent="L99Kusbpt5Ot0ZVRhMrV-44" vertex="1" connectable="0">
          <mxGeometry x="7" y="7" width="16" height="16" as="geometry" />
        </mxCell>
        <mxCell id="L99Kusbpt5Ot0ZVRhMrV-47" value="" style="group;aspect=fixed;connectable=0;editable=0;strokeColor=none;strokeWidth=2;fillColor=none;" parent="L99Kusbpt5Ot0ZVRhMrV-46" vertex="1" connectable="0">
          <mxGeometry width="16" height="16" as="geometry" />
        </mxCell>
        <mxCell id="L99Kusbpt5Ot0ZVRhMrV-48" value="" style="rounded=0;whiteSpace=wrap;html=1;strokeColor=none;aspect=fixed;fillColor=none;connectable=0;" parent="L99Kusbpt5Ot0ZVRhMrV-47" vertex="1">
          <mxGeometry width="16" height="16" as="geometry" />
        </mxCell>
        <mxCell id="L99Kusbpt5Ot0ZVRhMrV-49" value="" style="shape=image;aspect=fixed;image=data:image/svg+xml,PHN2ZyB4bWxucz0iaHR0cDovL3d3dy53My5vcmcvMjAwMC9zdmciIHZpZXdCb3g9IjAgMCA1MTIgNTEyIj48cGF0aCBkPSJNNDY0IDEyOEgyNzJsLTY0LTY0SDQ4QzIxLjQ5IDY0IDAgODUuNDkgMCAxMTJ2Mjg4YzAgMjYuNTEgMjEuNDkgNDggNDggNDhoNDE2YzI2LjUxIDAgNDgtMjEuNDkgNDgtNDhWMTc2YzAtMjYuNTEtMjEuNDktNDgtNDgtNDh6Ii8+PC9zdmc+;connectable=0;editable=0;movable=0;resizable=1;rotatable=0;cloneable=0;deletable=0;recursiveResize=0;imageBackground=none;noLabel=1;fontColor=none;" parent="L99Kusbpt5Ot0ZVRhMrV-47" vertex="1">
          <mxGeometry width="16" height="16" as="geometry" />
        </mxCell>
        <mxCell id="L99Kusbpt5Ot0ZVRhMrV-50" value="" style="group" parent="1" vertex="1" connectable="0">
          <mxGeometry x="34" y="268" width="30" height="30" as="geometry" />
        </mxCell>
        <mxCell id="L99Kusbpt5Ot0ZVRhMrV-51" value="" style="rounded=1;whiteSpace=wrap;html=1;fillColor=#E6E6E6;" parent="L99Kusbpt5Ot0ZVRhMrV-50" vertex="1">
          <mxGeometry width="30" height="30" as="geometry" />
        </mxCell>
        <mxCell id="L99Kusbpt5Ot0ZVRhMrV-52" value="" style="group" parent="L99Kusbpt5Ot0ZVRhMrV-50" vertex="1" connectable="0">
          <mxGeometry x="7" y="7" width="16" height="16" as="geometry" />
        </mxCell>
        <mxCell id="L99Kusbpt5Ot0ZVRhMrV-53" value="" style="group;aspect=fixed;connectable=0;editable=0;strokeColor=none;strokeWidth=2;fillColor=none;" parent="L99Kusbpt5Ot0ZVRhMrV-52" vertex="1" connectable="0">
          <mxGeometry width="16" height="16" as="geometry" />
        </mxCell>
        <mxCell id="L99Kusbpt5Ot0ZVRhMrV-54" value="" style="rounded=0;whiteSpace=wrap;html=1;strokeColor=none;aspect=fixed;fillColor=none;connectable=0;" parent="L99Kusbpt5Ot0ZVRhMrV-53" vertex="1">
          <mxGeometry width="16" height="16" as="geometry" />
        </mxCell>
        <mxCell id="L99Kusbpt5Ot0ZVRhMrV-55" value="" style="shape=image;aspect=fixed;image=data:image/svg+xml,PHN2ZyB4bWxucz0iaHR0cDovL3d3dy53My5vcmcvMjAwMC9zdmciIHZpZXdCb3g9IjAgMCA1MTIgNTEyIj48cGF0aCBkPSJNNDY0IDEyOEgyNzJsLTY0LTY0SDQ4QzIxLjQ5IDY0IDAgODUuNDkgMCAxMTJ2Mjg4YzAgMjYuNTEgMjEuNDkgNDggNDggNDhoNDE2YzI2LjUxIDAgNDgtMjEuNDkgNDgtNDhWMTc2YzAtMjYuNTEtMjEuNDktNDgtNDgtNDh6Ii8+PC9zdmc+;connectable=0;editable=0;movable=0;resizable=1;rotatable=0;cloneable=0;deletable=0;recursiveResize=0;imageBackground=none;noLabel=1;fontColor=none;" parent="L99Kusbpt5Ot0ZVRhMrV-53" vertex="1">
          <mxGeometry width="16" height="16" as="geometry" />
        </mxCell>
        <mxCell id="L99Kusbpt5Ot0ZVRhMrV-56" value="" style="group" parent="1" vertex="1" connectable="0">
          <mxGeometry x="34" y="307" width="30" height="30" as="geometry" />
        </mxCell>
        <mxCell id="L99Kusbpt5Ot0ZVRhMrV-57" value="" style="rounded=1;whiteSpace=wrap;html=1;fillColor=#E6E6E6;" parent="L99Kusbpt5Ot0ZVRhMrV-56" vertex="1">
          <mxGeometry width="30" height="30" as="geometry" />
        </mxCell>
        <mxCell id="L99Kusbpt5Ot0ZVRhMrV-58" value="" style="group" parent="L99Kusbpt5Ot0ZVRhMrV-56" vertex="1" connectable="0">
          <mxGeometry x="7" y="7" width="16" height="16" as="geometry" />
        </mxCell>
        <mxCell id="L99Kusbpt5Ot0ZVRhMrV-59" value="" style="group;aspect=fixed;connectable=0;editable=0;strokeColor=none;strokeWidth=2;fillColor=none;" parent="L99Kusbpt5Ot0ZVRhMrV-58" vertex="1" connectable="0">
          <mxGeometry width="16" height="16" as="geometry" />
        </mxCell>
        <mxCell id="L99Kusbpt5Ot0ZVRhMrV-60" value="" style="rounded=0;whiteSpace=wrap;html=1;strokeColor=none;aspect=fixed;fillColor=none;connectable=0;" parent="L99Kusbpt5Ot0ZVRhMrV-59" vertex="1">
          <mxGeometry width="16" height="16" as="geometry" />
        </mxCell>
        <mxCell id="L99Kusbpt5Ot0ZVRhMrV-61" value="" style="shape=image;aspect=fixed;image=data:image/svg+xml,PHN2ZyB4bWxucz0iaHR0cDovL3d3dy53My5vcmcvMjAwMC9zdmciIHZpZXdCb3g9IjAgMCA1MTIgNTEyIj48cGF0aCBkPSJNNDY0IDEyOEgyNzJsLTY0LTY0SDQ4QzIxLjQ5IDY0IDAgODUuNDkgMCAxMTJ2Mjg4YzAgMjYuNTEgMjEuNDkgNDggNDggNDhoNDE2YzI2LjUxIDAgNDgtMjEuNDkgNDgtNDhWMTc2YzAtMjYuNTEtMjEuNDktNDgtNDgtNDh6Ii8+PC9zdmc+;connectable=0;editable=0;movable=0;resizable=1;rotatable=0;cloneable=0;deletable=0;recursiveResize=0;imageBackground=none;noLabel=1;fontColor=none;" parent="L99Kusbpt5Ot0ZVRhMrV-59" vertex="1">
          <mxGeometry width="16" height="16" as="geometry" />
        </mxCell>
        <mxCell id="L99Kusbpt5Ot0ZVRhMrV-62" value="" style="group" parent="1" vertex="1" connectable="0">
          <mxGeometry x="34" y="346" width="30" height="30" as="geometry" />
        </mxCell>
        <mxCell id="L99Kusbpt5Ot0ZVRhMrV-63" value="" style="rounded=1;whiteSpace=wrap;html=1;fillColor=#E6E6E6;" parent="L99Kusbpt5Ot0ZVRhMrV-62" vertex="1">
          <mxGeometry width="30" height="30" as="geometry" />
        </mxCell>
        <mxCell id="L99Kusbpt5Ot0ZVRhMrV-64" value="" style="group" parent="L99Kusbpt5Ot0ZVRhMrV-62" vertex="1" connectable="0">
          <mxGeometry x="7" y="7" width="16" height="16" as="geometry" />
        </mxCell>
        <mxCell id="L99Kusbpt5Ot0ZVRhMrV-65" value="" style="group;aspect=fixed;connectable=0;editable=0;strokeColor=none;strokeWidth=2;fillColor=none;" parent="L99Kusbpt5Ot0ZVRhMrV-64" vertex="1" connectable="0">
          <mxGeometry width="16" height="16" as="geometry" />
        </mxCell>
        <mxCell id="L99Kusbpt5Ot0ZVRhMrV-66" value="" style="rounded=0;whiteSpace=wrap;html=1;strokeColor=none;aspect=fixed;fillColor=none;connectable=0;" parent="L99Kusbpt5Ot0ZVRhMrV-65" vertex="1">
          <mxGeometry width="16" height="16" as="geometry" />
        </mxCell>
        <mxCell id="L99Kusbpt5Ot0ZVRhMrV-67" value="" style="shape=image;aspect=fixed;image=data:image/svg+xml,PHN2ZyB4bWxucz0iaHR0cDovL3d3dy53My5vcmcvMjAwMC9zdmciIHZpZXdCb3g9IjAgMCA1MTIgNTEyIj48cGF0aCBkPSJNNDY0IDEyOEgyNzJsLTY0LTY0SDQ4QzIxLjQ5IDY0IDAgODUuNDkgMCAxMTJ2Mjg4YzAgMjYuNTEgMjEuNDkgNDggNDggNDhoNDE2YzI2LjUxIDAgNDgtMjEuNDkgNDgtNDhWMTc2YzAtMjYuNTEtMjEuNDktNDgtNDgtNDh6Ii8+PC9zdmc+;connectable=0;editable=0;movable=0;resizable=1;rotatable=0;cloneable=0;deletable=0;recursiveResize=0;imageBackground=none;noLabel=1;fontColor=none;" parent="L99Kusbpt5Ot0ZVRhMrV-65" vertex="1">
          <mxGeometry width="16" height="16" as="geometry" />
        </mxCell>
        <mxCell id="L99Kusbpt5Ot0ZVRhMrV-68" value="" style="group" parent="1" vertex="1" connectable="0">
          <mxGeometry x="34" y="384" width="30" height="30" as="geometry" />
        </mxCell>
        <mxCell id="L99Kusbpt5Ot0ZVRhMrV-69" value="" style="rounded=1;whiteSpace=wrap;html=1;fillColor=#E6E6E6;" parent="L99Kusbpt5Ot0ZVRhMrV-68" vertex="1">
          <mxGeometry width="30" height="30" as="geometry" />
        </mxCell>
        <mxCell id="L99Kusbpt5Ot0ZVRhMrV-70" value="" style="group" parent="L99Kusbpt5Ot0ZVRhMrV-68" vertex="1" connectable="0">
          <mxGeometry x="7" y="7" width="16" height="16" as="geometry" />
        </mxCell>
        <mxCell id="L99Kusbpt5Ot0ZVRhMrV-71" value="" style="group;aspect=fixed;connectable=0;editable=0;strokeColor=none;strokeWidth=2;fillColor=none;" parent="L99Kusbpt5Ot0ZVRhMrV-70" vertex="1" connectable="0">
          <mxGeometry width="16" height="16" as="geometry" />
        </mxCell>
        <mxCell id="L99Kusbpt5Ot0ZVRhMrV-72" value="" style="rounded=0;whiteSpace=wrap;html=1;strokeColor=none;aspect=fixed;fillColor=none;connectable=0;" parent="L99Kusbpt5Ot0ZVRhMrV-71" vertex="1">
          <mxGeometry width="16" height="16" as="geometry" />
        </mxCell>
        <mxCell id="L99Kusbpt5Ot0ZVRhMrV-73" value="" style="shape=image;aspect=fixed;image=data:image/svg+xml,PHN2ZyB4bWxucz0iaHR0cDovL3d3dy53My5vcmcvMjAwMC9zdmciIHZpZXdCb3g9IjAgMCA1MTIgNTEyIj48cGF0aCBkPSJNNDY0IDEyOEgyNzJsLTY0LTY0SDQ4QzIxLjQ5IDY0IDAgODUuNDkgMCAxMTJ2Mjg4YzAgMjYuNTEgMjEuNDkgNDggNDggNDhoNDE2YzI2LjUxIDAgNDgtMjEuNDkgNDgtNDhWMTc2YzAtMjYuNTEtMjEuNDktNDgtNDgtNDh6Ii8+PC9zdmc+;connectable=0;editable=0;movable=0;resizable=1;rotatable=0;cloneable=0;deletable=0;recursiveResize=0;imageBackground=none;noLabel=1;fontColor=none;" parent="L99Kusbpt5Ot0ZVRhMrV-71" vertex="1">
          <mxGeometry width="16" height="16" as="geometry" />
        </mxCell>
        <mxCell id="L99Kusbpt5Ot0ZVRhMrV-74" value="&lt;font face=&quot;Hack&quot;&gt;phase&lt;/font&gt;" style="text;html=1;align=left;verticalAlign=middle;resizable=0;points=[];autosize=1;container=0;" parent="1" vertex="1">
          <mxGeometry x="65.75000000000011" y="388" width="46" height="18" as="geometry" />
        </mxCell>
        <mxCell id="3AqXI54nhejsne2jLLB9-1" value="&lt;font face=&quot;Hack&quot;&gt;pipelines&lt;br&gt;&lt;/font&gt;" style="text;html=1;align=left;verticalAlign=middle;resizable=0;points=[];autosize=1;fontColor=#000000;" parent="1" vertex="1">
          <mxGeometry x="368.5" y="275" width="75" height="18" as="geometry" />
        </mxCell>
        <mxCell id="3AqXI54nhejsne2jLLB9-2" value="" style="group" parent="1" vertex="1" connectable="0">
          <mxGeometry x="335.5" y="272" width="30" height="30" as="geometry" />
        </mxCell>
        <mxCell id="3AqXI54nhejsne2jLLB9-3" value="" style="rounded=1;whiteSpace=wrap;html=1;fillColor=#E6E6E6;" parent="3AqXI54nhejsne2jLLB9-2" vertex="1">
          <mxGeometry width="30" height="30" as="geometry" />
        </mxCell>
        <mxCell id="3AqXI54nhejsne2jLLB9-4" value="" style="group" parent="3AqXI54nhejsne2jLLB9-2" vertex="1" connectable="0">
          <mxGeometry x="7" y="7" width="16" height="16" as="geometry" />
        </mxCell>
        <mxCell id="3AqXI54nhejsne2jLLB9-5" value="" style="group;aspect=fixed;connectable=0;editable=0;strokeColor=none;strokeWidth=2;fillColor=none;" parent="3AqXI54nhejsne2jLLB9-4" vertex="1" connectable="0">
          <mxGeometry width="16" height="16" as="geometry" />
        </mxCell>
        <mxCell id="3AqXI54nhejsne2jLLB9-6" value="" style="rounded=0;whiteSpace=wrap;html=1;strokeColor=none;aspect=fixed;fillColor=none;connectable=0;" parent="3AqXI54nhejsne2jLLB9-5" vertex="1">
          <mxGeometry width="16" height="16" as="geometry" />
        </mxCell>
        <mxCell id="3AqXI54nhejsne2jLLB9-7" value="" style="shape=image;aspect=fixed;image=data:image/svg+xml,PHN2ZyB4bWxucz0iaHR0cDovL3d3dy53My5vcmcvMjAwMC9zdmciIHZpZXdCb3g9IjAgMCA1MTIgNTEyIj48cGF0aCBkPSJNNDY0IDEyOEgyNzJsLTY0LTY0SDQ4QzIxLjQ5IDY0IDAgODUuNDkgMCAxMTJ2Mjg4YzAgMjYuNTEgMjEuNDkgNDggNDggNDhoNDE2YzI2LjUxIDAgNDgtMjEuNDkgNDgtNDhWMTc2YzAtMjYuNTEtMjEuNDktNDgtNDgtNDh6Ii8+PC9zdmc+;connectable=0;editable=0;movable=0;resizable=1;rotatable=0;cloneable=0;deletable=0;recursiveResize=0;imageBackground=none;noLabel=1;fontColor=none;" parent="3AqXI54nhejsne2jLLB9-5" vertex="1">
          <mxGeometry width="16" height="16" as="geometry" />
        </mxCell>
        <mxCell id="3AqXI54nhejsne2jLLB9-8" value="" style="endArrow=block;html=1;fontColor=#000000;exitX=0.5;exitY=1;exitDx=0;exitDy=0;rounded=0;strokeWidth=6;endFill=1;endSize=0;entryX=0.5;entryY=0;entryDx=0;entryDy=0;" parent="1" source="3AqXI54nhejsne2jLLB9-3" target="C2EvqtGhiyWC_0qhIHkO-21" edge="1">
          <mxGeometry width="50" height="50" relative="1" as="geometry">
            <mxPoint x="202" y="228" as="sourcePoint" />
            <mxPoint x="151" y="228" as="targetPoint" />
            <Array as="points" />
          </mxGeometry>
        </mxCell>
        <mxCell id="obgYGGiiwSXClEFMFCNB-4" value="" style="group" vertex="1" connectable="0" parent="1">
          <mxGeometry x="12" y="70.25" width="201.35" height="31.5" as="geometry" />
        </mxCell>
        <mxCell id="Qhg78K9M03xVrOgJA2YK-102" value="" style="group" parent="obgYGGiiwSXClEFMFCNB-4" vertex="1" connectable="0">
          <mxGeometry y="0.75" width="30" height="30" as="geometry" />
        </mxCell>
        <mxCell id="Qhg78K9M03xVrOgJA2YK-8" value="" style="rounded=1;whiteSpace=wrap;html=1;fillColor=#E6E6E6;" parent="Qhg78K9M03xVrOgJA2YK-102" vertex="1">
          <mxGeometry width="30" height="30" as="geometry" />
        </mxCell>
        <mxCell id="Qhg78K9M03xVrOgJA2YK-101" value="" style="group" parent="Qhg78K9M03xVrOgJA2YK-102" vertex="1" connectable="0">
          <mxGeometry x="7" y="7" width="16" height="16" as="geometry" />
        </mxCell>
        <mxCell id="Qhg78K9M03xVrOgJA2YK-65" value="" style="group;aspect=fixed;connectable=0;editable=0;strokeColor=none;strokeWidth=2;fillColor=none;" parent="Qhg78K9M03xVrOgJA2YK-101" vertex="1" connectable="0">
          <mxGeometry width="16" height="16" as="geometry" />
        </mxCell>
        <mxCell id="Qhg78K9M03xVrOgJA2YK-66" value="" style="rounded=0;whiteSpace=wrap;html=1;strokeColor=none;aspect=fixed;fillColor=none;connectable=0;" parent="Qhg78K9M03xVrOgJA2YK-65" vertex="1">
          <mxGeometry width="16" height="16" as="geometry" />
        </mxCell>
        <mxCell id="Qhg78K9M03xVrOgJA2YK-67" value="" style="shape=image;aspect=fixed;image=data:image/svg+xml,PHN2ZyB4bWxucz0iaHR0cDovL3d3dy53My5vcmcvMjAwMC9zdmciIHZpZXdCb3g9IjAgMCA1MTIgNTEyIj48cGF0aCBkPSJNNDY0IDEyOEgyNzJsLTY0LTY0SDQ4QzIxLjQ5IDY0IDAgODUuNDkgMCAxMTJ2Mjg4YzAgMjYuNTEgMjEuNDkgNDggNDggNDhoNDE2YzI2LjUxIDAgNDgtMjEuNDkgNDgtNDhWMTc2YzAtMjYuNTEtMjEuNDktNDgtNDgtNDh6Ii8+PC9zdmc+;connectable=0;editable=0;movable=0;resizable=1;rotatable=0;cloneable=0;deletable=0;recursiveResize=0;imageBackground=none;noLabel=1;fontColor=none;" parent="Qhg78K9M03xVrOgJA2YK-65" vertex="1">
          <mxGeometry width="16" height="16" as="geometry" />
        </mxCell>
        <mxCell id="obgYGGiiwSXClEFMFCNB-2" value="" style="shape=image;aspect=fixed;image=data:image/svg+xml,PD94bWwgdmVyc2lvbj0iMS4wIiBlbmNvZGluZz0iVVRGLTgiIHN0YW5kYWxvbmU9Im5vIj8+CjwhLS0gQ3JlYXRlZCB3aXRoIElua3NjYXBlIChodHRwOi8vd3d3Lmlua3NjYXBlLm9yZy8pIC0tPgoKPHN2ZwogICB3aWR0aD0iMTI0LjM0OTQxbW0iCiAgIGhlaWdodD0iMjMuNTc3NTc4bW0iCiAgIHZpZXdCb3g9IjAgMCA0NDAuNjA4MTYgODMuNTQyNTkzIgogICBpZD0ic3ZnMiIKICAgdmVyc2lvbj0iMS4xIgogICBpbmtzY2FwZTp2ZXJzaW9uPSIxLjEuMiAoYjhlMjViZTgsIDIwMjItMDItMDUpIgogICBzb2RpcG9kaTpkb2NuYW1lPSJsb2dvX3R5cG9fZm9udGZyZWVfY29sb3JfdmVjdG9yLnN2ZyIKICAgeG1sbnM6aW5rc2NhcGU9Imh0dHA6Ly93d3cuaW5rc2NhcGUub3JnL25hbWVzcGFjZXMvaW5rc2NhcGUiCiAgIHhtbG5zOnNvZGlwb2RpPSJodHRwOi8vc29kaXBvZGkuc291cmNlZm9yZ2UubmV0L0RURC9zb2RpcG9kaS0wLmR0ZCIKICAgeG1sbnM6eGxpbms9Imh0dHA6Ly93d3cudzMub3JnLzE5OTkveGxpbmsiCiAgIHhtbG5zPSJodHRwOi8vd3d3LnczLm9yZy8yMDAwL3N2ZyIKICAgeG1sbnM6c3ZnPSJodHRwOi8vd3d3LnczLm9yZy8yMDAwL3N2ZyIKICAgeG1sbnM6cmRmPSJodHRwOi8vd3d3LnczLm9yZy8xOTk5LzAyLzIyLXJkZi1zeW50YXgtbnMjIgogICB4bWxuczpjYz0iaHR0cDovL2NyZWF0aXZlY29tbW9ucy5vcmcvbnMjIgogICB4bWxuczpkYz0iaHR0cDovL3B1cmwub3JnL2RjL2VsZW1lbnRzLzEuMS8iPgogIDxkZWZzCiAgICAgaWQ9ImRlZnM0Ij4KICAgIDxsaW5lYXJHcmFkaWVudAogICAgICAgZ3JhZGllbnRUcmFuc2Zvcm09Im1hdHJpeCg1Ljg3NjE0MjIsMCwwLDUuODc2MTQyMiwtMzUxLjQ0MDA4LC00OTkuNjY5NDIpIgogICAgICAgaW5rc2NhcGU6Y29sbGVjdD0iYWx3YXlzIgogICAgICAgeGxpbms6aHJlZj0iI2xpbmVhckdyYWRpZW50NTQxNSIKICAgICAgIGlkPSJsaW5lYXJHcmFkaWVudDU0MTciCiAgICAgICB4MT0iNzEuNjk3MTQ0IgogICAgICAgeTE9IjExNy45MjcxNyIKICAgICAgIHgyPSI5My44NDEyNyIKICAgICAgIHkyPSIxMTcuOTI3MTciCiAgICAgICBncmFkaWVudFVuaXRzPSJ1c2VyU3BhY2VPblVzZSIgLz4KICAgIDxsaW5lYXJHcmFkaWVudAogICAgICAgaW5rc2NhcGU6Y29sbGVjdD0iYWx3YXlzIgogICAgICAgaWQ9ImxpbmVhckdyYWRpZW50NTQxNSI+CiAgICAgIDxzdG9wCiAgICAgICAgIHN0eWxlPSJzdG9wLWNvbG9yOiM3NmRlNjU7c3RvcC1vcGFjaXR5OjE7IgogICAgICAgICBvZmZzZXQ9IjAiCiAgICAgICAgIGlkPSJzdG9wNTQxMSIgLz4KICAgICAgPHN0b3AKICAgICAgICAgc3R5bGU9InN0b3AtY29sb3I6IzY0N2RlNztzdG9wLW9wYWNpdHk6MSIKICAgICAgICAgb2Zmc2V0PSIxIgogICAgICAgICBpZD0ic3RvcDU0MTMiIC8+CiAgICA8L2xpbmVhckdyYWRpZW50PgogICAgPGxpbmVhckdyYWRpZW50CiAgICAgICBncmFkaWVudFRyYW5zZm9ybT0ibWF0cml4KDUuODc2MTQyMiwwLDAsNS44NzYxNDIyLC0zNTEuNDQwMDgsLTQ5OS42Njk0MikiCiAgICAgICBpbmtzY2FwZTpjb2xsZWN0PSJhbHdheXMiCiAgICAgICB4bGluazpocmVmPSIjbGluZWFyR3JhZGllbnQ1Mzk2IgogICAgICAgaWQ9ImxpbmVhckdyYWRpZW50NTM4NSIKICAgICAgIHgxPSI3MS42OTcwNjciCiAgICAgICB5MT0iMTA5LjYzNDIyIgogICAgICAgeDI9Ijg5LjQ1MDE4IgogICAgICAgeTI9IjEwOS42MzQyMiIKICAgICAgIGdyYWRpZW50VW5pdHM9InVzZXJTcGFjZU9uVXNlIiAvPgogICAgPGxpbmVhckdyYWRpZW50CiAgICAgICBpZD0ibGluZWFyR3JhZGllbnQ1Mzk2IgogICAgICAgaW5rc2NhcGU6Y29sbGVjdD0iYWx3YXlzIj4KICAgICAgPHN0b3AKICAgICAgICAgaWQ9InN0b3A1MzkyIgogICAgICAgICBvZmZzZXQ9IjAiCiAgICAgICAgIHN0eWxlPSJzdG9wLWNvbG9yOiNmZmVmMGE7c3RvcC1vcGFjaXR5OjEiIC8+CiAgICAgIDxzdG9wCiAgICAgICAgIGlkPSJzdG9wNTM5NCIKICAgICAgICAgb2Zmc2V0PSIxIgogICAgICAgICBzdHlsZT0ic3RvcC1jb2xvcjojZmYyOTc4O3N0b3Atb3BhY2l0eToxIiAvPgogICAgPC9saW5lYXJHcmFkaWVudD4KICAgIDxsaW5lYXJHcmFkaWVudAogICAgICAgZ3JhZGllbnRUcmFuc2Zvcm09Im1hdHJpeCg1Ljg3NjE0MjIsMCwwLDUuODc2MTQyMiwtMzUxLjQ0MDA4LC00OTkuNjY5NDIpIgogICAgICAgaW5rc2NhcGU6Y29sbGVjdD0iYWx3YXlzIgogICAgICAgeGxpbms6aHJlZj0iI2xpbmVhckdyYWRpZW50NTM3MC05IgogICAgICAgaWQ9ImxpbmVhckdyYWRpZW50NTM3MiIKICAgICAgIHgxPSI3MS42OTY0NzIiCiAgICAgICB5MT0iMTAwLjcyNDkyIgogICAgICAgeDI9IjkzLjgzODgyOSIKICAgICAgIHkyPSIxMDAuNzI0OTIiCiAgICAgICBncmFkaWVudFVuaXRzPSJ1c2VyU3BhY2VPblVzZSIgLz4KICAgIDxsaW5lYXJHcmFkaWVudAogICAgICAgaW5rc2NhcGU6Y29sbGVjdD0iYWx3YXlzIgogICAgICAgaWQ9ImxpbmVhckdyYWRpZW50NTM3MC05Ij4KICAgICAgPHN0b3AKICAgICAgICAgc3R5bGU9InN0b3AtY29sb3I6IzJiNzRmZjtzdG9wLW9wYWNpdHk6MSIKICAgICAgICAgb2Zmc2V0PSIwIgogICAgICAgICBpZD0ic3RvcDUzNjYiIC8+CiAgICAgIDxzdG9wCiAgICAgICAgIHN0eWxlPSJzdG9wLWNvbG9yOiNlNTczZmQ7c3RvcC1vcGFjaXR5OjEiCiAgICAgICAgIG9mZnNldD0iMSIKICAgICAgICAgaWQ9InN0b3A1MzY4IiAvPgogICAgPC9saW5lYXJHcmFkaWVudD4KICA8L2RlZnM+CiAgPHNvZGlwb2RpOm5hbWVkdmlldwogICAgIGlkPSJiYXNlIgogICAgIHBhZ2Vjb2xvcj0iI2ZmZmZmZiIKICAgICBib3JkZXJjb2xvcj0iIzY2NjY2NiIKICAgICBib3JkZXJvcGFjaXR5PSIxLjAiCiAgICAgaW5rc2NhcGU6cGFnZW9wYWNpdHk9IjAiCiAgICAgaW5rc2NhcGU6cGFnZXNoYWRvdz0iMiIKICAgICBpbmtzY2FwZTp6b29tPSIwLjcyNDU1NTYiCiAgICAgaW5rc2NhcGU6Y3g9IjEyOC4zNTQ1NCIKICAgICBpbmtzY2FwZTpjeT0iLTguOTcxMDE2MiIKICAgICBpbmtzY2FwZTpkb2N1bWVudC11bml0cz0icHgiCiAgICAgaW5rc2NhcGU6Y3VycmVudC1sYXllcj0iZzE3MzciCiAgICAgc2hvd2dyaWQ9ImZhbHNlIgogICAgIGZpdC1tYXJnaW4tdG9wPSIyIgogICAgIGZpdC1tYXJnaW4tbGVmdD0iMiIKICAgICBmaXQtbWFyZ2luLXJpZ2h0PSIyIgogICAgIGZpdC1tYXJnaW4tYm90dG9tPSIyIgogICAgIGlua3NjYXBlOndpbmRvdy13aWR0aD0iMTY4MCIKICAgICBpbmtzY2FwZTp3aW5kb3ctaGVpZ2h0PSI5OTciCiAgICAgaW5rc2NhcGU6d2luZG93LXg9IjAiCiAgICAgaW5rc2NhcGU6d2luZG93LXk9IjI1IgogICAgIGlua3NjYXBlOndpbmRvdy1tYXhpbWl6ZWQ9IjEiCiAgICAgaW5rc2NhcGU6cGFnZWNoZWNrZXJib2FyZD0iMCIgLz4KICA8bWV0YWRhdGEKICAgICBpZD0ibWV0YWRhdGE3Ij4KICAgIDxyZGY6UkRGPgogICAgICA8Y2M6V29yawogICAgICAgICByZGY6YWJvdXQ9IiI+CiAgICAgICAgPGRjOmZvcm1hdD5pbWFnZS9zdmcreG1sPC9kYzpmb3JtYXQ+CiAgICAgICAgPGRjOnR5cGUKICAgICAgICAgICByZGY6cmVzb3VyY2U9Imh0dHA6Ly9wdXJsLm9yZy9kYy9kY21pdHlwZS9TdGlsbEltYWdlIiAvPgogICAgICA8L2NjOldvcms+CiAgICA8L3JkZjpSREY+CiAgPC9tZXRhZGF0YT4KICA8ZwogICAgIGlua3NjYXBlOmxhYmVsPSJMYXllciAxIgogICAgIGlua3NjYXBlOmdyb3VwbW9kZT0ibGF5ZXIiCiAgICAgaWQ9ImxheWVyMSIKICAgICB0cmFuc2Zvcm09InRyYW5zbGF0ZSgtMTQ2LjIyMzU0LC00NzAuNzc4MDgpIj4KICAgIDxnCiAgICAgICBpZD0iZzE3MzciCiAgICAgICB0cmFuc2Zvcm09Im1hdHJpeCgzLjU0MzMwNzEsMCwwLDMuNTQzMzA3MSwtMTQuNzE1OTU3LC0xMjQuMjc3NzIpIj4KICAgICAgPGcKICAgICAgICAgaWQ9ImcxNzY2IgogICAgICAgICBzdHlsZT0ic3Ryb2tlOiMwMDAwMDA7c3Ryb2tlLXdpZHRoOjIuMDQ1OTE1MzQ7c3Ryb2tlLW1pdGVybGltaXQ6NDtzdHJva2UtZGFzaGFycmF5Om5vbmU7c3Ryb2tlLW9wYWNpdHk6MSIKICAgICAgICAgdHJhbnNmb3JtPSJtYXRyaXgoMC4xMTkxMzcxNCwwLDAsMC4xNDAzNzkxLDM4LjkyNTg3MiwxNTkuODY2MTUpIj4KICAgICAgICA8cGF0aAogICAgICAgICAgIHNvZGlwb2RpOm5vZGV0eXBlcz0iY2NjY2NjY2NjY2NjY2Njc2MiCiAgICAgICAgICAgaW5rc2NhcGU6Y29ubmVjdG9yLWN1cnZhdHVyZT0iMCIKICAgICAgICAgICBpZD0icGF0aDUzNjQiCiAgICAgICAgICAgZD0ibSA3MS4zMTM3NDIsMjA1LjMwMzgyIGMgMC4wNzM0MSwtMy43NTMzMyAwLjAyOTQzLC02Ljc2MjYyIDAuMDgwNTIsLTcuMzMxNzcgMC43OTM1NzQsLTguODIwODYgNi40Njc5ODIsLTE2LjQwNTU2IDE1LjEwODY3OCwtMjAuMTk0NDggMi41NDU3ODIsLTEuMTE2MzUgNS4wMzIyMDksLTEuNzgxMzEgOC41MTgwNTEsLTIuMjc4MDIgMC41NDk0MTksLTAuMDc4MSAxMi40MzU5MDksLTAuMTA3NiA1Mi4xMTIzOTksLTAuMTI3NTEgbCA1MS40MDAwOCwtMC4wMjk0IC0wLjA1ODksMS4wNjIgYyAtMC4yNTYxOSw0Ljc5MTE2IC0xLjk3Mjk5LDkuMjAxMDkgLTUuMTMyODcsMTMuMTg0MzkgLTAuNzc3MDUsMC45Nzk1NyAtMi45MDI0MSwzLjA4MzQgLTMuOTg5ODQsMy45NDk1NCAtNC42Njc3MSwzLjcxNzczIC0xMC4zNjk2OCw1Ljg4Mjg0IC0xNi43Mzg3OCw2LjM1NjI5IC0wLjczMTA1LDAuMDU4OCAtMTMuODMzNzcsMC4wODM1IC0zNy4wMzc0NCwwLjA4MzUgLTM3Ljk1MzU5Myw4LjJlLTQgLTM4LjI0NTY5NSwwLjAwMyAtNDIuMzE2NDU1LDAuMzgxMzUgLTYuNTkyNjg3LDAuNjExMjQgLTEyLjA0NTQ1LDIuMTQ5OTcgLTE1LjkyMTE3NSw0LjQ5MjAyIC0xLjIyMTg4MSwwLjczODIxIC0yLjA3NDc0NSwxLjM5Mzg3IC0zLjA4ODY4MSwyLjM3Mzc4IC0xLjM0MDE2MywxLjI5NTU4IC0yLjkyMzE5OCwzLjk4Mjk3IC0yLjkyMzE5OCwzLjk4Mjk3IDAsMCAtMC4wMzUyNywtNC43ODc3OCAtMC4wMTExLC01LjkwNDY1IHoiCiAgICAgICAgICAgc3R5bGU9ImZpbGw6dXJsKCNsaW5lYXJHcmFkaWVudDU0MTcpO2ZpbGwtb3BhY2l0eToxO3N0cm9rZTojMDAwMDAwO3N0cm9rZS13aWR0aDoyLjA0NTkxNTM0O3N0cm9rZS1saW5lY2FwOmJ1dHQ7c3Ryb2tlLWxpbmVqb2luOm1pdGVyO3N0cm9rZS1taXRlcmxpbWl0OjQ7c3Ryb2tlLWRhc2hhcnJheTpub25lO3N0cm9rZS1vcGFjaXR5OjEiIC8+CiAgICAgICAgPHBhdGgKICAgICAgICAgICBzb2RpcG9kaTpub2RldHlwZXM9InNzY2NjY2NjY3NjY2NjcyIKICAgICAgICAgICBpbmtzY2FwZTpjb25uZWN0b3ItY3VydmF0dXJlPSIwIgogICAgICAgICAgIGlkPSJwYXRoNTM2MiIKICAgICAgICAgICBkPSJtIDcxLjQzMzU1OCwxNTYuMjk4OTEgYyAwLjAxNzU2LC0zLjQxNTk4IC0wLjE2MTAwOSwtNS40NzAwMyAtMC4wNDExMywtNy4zMTI2MiAwLjM0NzI2NSwtNS4zMzcwMSAyLjEyNTgxMSwtMTAuMDM3MjMgNS4wNzYzOTIsLTEzLjk5MTM5IDMuNzYzMzc1LC01LjA0MzMyIDkuMDUxMTQ1LC04LjAzMTgxIDE1LjAzNDk5NCwtOC40OTY4MyAxLjI3Njg4NCwtMC4wOTkzIDgxLjIyNzI1NiwtMC4wMTc1IDgxLjIyNzI1NiwtMC4wMTc1IDAsMCAtMC4wOTk5LDIuNjYzOSAtMC4yNDI2OCwzLjcwMzkgLTAuNTk4NjcsNC4zNTI0NyAtMi4zMTk2Niw4LjU0NDQgLTQuOTMzODQsMTIuMDE3NjYgLTAuODcyNzgsMS4xNTk1NCAtMi41OTM3OSwyLjk2NDkzIC0zLjczNzA1LDMuOTIwMjcgLTIuNjE1NywyLjE4NTY5IC01Ljg4MDYsMy43ODc4MyAtOS4xNzc0Miw0LjUwMzc3IC0yLjAzNjY2LDAuNDQxODggLTAuNTM5NDMsMC40MjI0OSAtMzEuODY2NDksMC40MjI0OSAtMTguMDkxNTksMCAtMjkuMzkyMjM0LDAuMDI5NSAtMzAuMDAxMTE5LDAuMDgxMiAtMC41MzcwOCwwLjA0NyAtMS41NjEyODMsMC4xMjIyOSAtMi4yNzU2NSwwLjE3MTU3IC00LjU1NDAwOCwwLjMxNjczIC04LjgwNTc1NiwxLjQxOTQ2IC0xMS45NzIwNDcsMy4xMDc2NSAtMy41Mzc4NTgsMS44ODYyNCAtNy4wNTA5MDksOC4yNTY4MiAtNy4wNTA5MDksOC4yNTY4MiAwLDAgLTAuMDUyODMsLTQuMjk0OTMgLTAuMDQxMTMsLTYuMzY2NzQgeiIKICAgICAgICAgICBzdHlsZT0iZmlsbDp1cmwoI2xpbmVhckdyYWRpZW50NTM4NSk7ZmlsbC1vcGFjaXR5OjE7c3Ryb2tlOiMwMDAwMDA7c3Ryb2tlLXdpZHRoOjIuMDQ1OTE1MzQ7c3Ryb2tlLWxpbmVjYXA6YnV0dDtzdHJva2UtbGluZWpvaW46bWl0ZXI7c3Ryb2tlLW1pdGVybGltaXQ6NDtzdHJva2UtZGFzaGFycmF5Om5vbmU7c3Ryb2tlLW9wYWNpdHk6MSIgLz4KICAgICAgICA8cGF0aAogICAgICAgICAgIHNvZGlwb2RpOm5vZGV0eXBlcz0iY2NzY3NjY2NjY2NjY3pjY2MiCiAgICAgICAgICAgaW5rc2NhcGU6Y29ubmVjdG9yLWN1cnZhdHVyZT0iMCIKICAgICAgICAgICBpZD0icGF0aDQxNDAiCiAgICAgICAgICAgZD0ibSA3MS4zMzUwMDQsMTAzLjM2OTc5IGMgMC4wMjk0MywtNy42MDEzNzggMC4wMTc3MSwtNy40MDI5OSAwLjUzMDYyNiwtOS43MTk4OTcgMC45NzEyNTYsLTQuMzg0OTYzIDMuMjIxMzU5LC04LjQxNjE3MyA2LjUyODM5NSwtMTEuNjk2MDQ4IDQuNTg5MDMyLC00LjU1MTQ5MyAxMC43ODg3MDQsLTcuMjg1MzAyIDE3Ljc1MDQwNSwtNy44MjcyNzEgMC43MDY3MjcsLTAuMDU4NjkgMTguNjAxMTEsLTAuMDg0NjQgNTEuNzI3NTYsLTAuMDg0NjQgaCA1MC42NDcwMiBsIC0wLjA1MjgsMC44MTY4OTEgYyAtMC4xMjk4OCwyLjA0NjM2NiAtMC4zNzE5NiwzLjUzNDA5MSAtMC44NDg2NCw1LjIxNTc5MiAtMS43OTgyMiw2LjM0NjM0NyAtNi42MDQ5LDExLjkzODQ5NSAtMTMuMTA2MTUsMTUuMjQ3NDYyIC0zLjMxMzk3LDEuNjg2NjM2IC02LjY2MDksMi42NzAxMiAtMTAuODkwNTUsMy4yMDAyNzIgLTAuNTk4MDgsMC4wNzQ2NiAtMTAuMTQxNywwLjExNTE2NCAtMzguMzc4MTUsMC4xNjI3NTcgLTIwLjY3MDEsMC4wMzUyNSAtMzcuODQ2MDAxLDAuMDg1MjEgLTM4LjE2ODYwMywwLjExMTY4OSAtMC4zMjI1ODgsMC4wMjk0MyAtMS4yMDg3NjksMC4wODgwNyAtMS45NjkyMDEsMC4xMzYzNjQgLTUuNDQ5ODM3LDAuMzQ0MzU2IC05Ljc3OTYwNiwwLjY3MjQxMyAtMTQuMTI5MDA2LDIuODQ3ODg5IC00LjM0OTQxNywyLjE3NTQ3IC05LjY2ODA4MSw4LjU4NjI5IC05LjY2ODA4MSw4LjU4NjI5IGwgMC4wMjM1NywtNi45OTY4IHoiCiAgICAgICAgICAgc3R5bGU9ImZpbGw6dXJsKCNsaW5lYXJHcmFkaWVudDUzNzIpO2ZpbGwtb3BhY2l0eToxO3N0cm9rZTojMDAwMDAwO3N0cm9rZS13aWR0aDoyLjA0NTkxNTM0O3N0cm9rZS1saW5lY2FwOmJ1dHQ7c3Ryb2tlLWxpbmVqb2luOm1pdGVyO3N0cm9rZS1taXRlcmxpbWl0OjQ7c3Ryb2tlLWRhc2hhcnJheTpub25lO3N0cm9rZS1vcGFjaXR5OjEiIC8+CiAgICAgIDwvZz4KICAgICAgPHBhdGgKICAgICAgICAgZD0ibSA2OC43NjUyNywxODEuMTAxMDggdiA3LjMyOTE3IGggLTQuMzYyMjgyIHYgLTE4LjQ5MjI4IGggOC4xMjg0NzYgcSAyLjI0ODg3OSwwIDMuNjAzNjI1LDAuNTI4MzUgMS4zNjgyOTMsMC41MTQ4IDIuMjYyNDI1LDEuOTEwMTkgMC44OTQxMzMsMS4zOTUzOSAwLjg5NDEzMywzLjEwMjM3IDAsMy4zMzI2OCAtMy4yMTA3NDgsNC43ODIyNSBsIDMuNDEzOTYsOC4xNjkxMiBoIC00Ljc4MjI1NCBsIC0yLjg0NDk2NywtNy4zMjkxNyB6IG0gMCwtNy44NzEwOCB2IDQuNzE0NTIgaCAyLjY1NTMwMiBxIDEuMzAwNTU2LDAgMS44ODMwOTcsLTAuMTc2MTIgMC41OTYwODksLTAuMTg5NjYgMS4wNTY3MDIsLTAuODEyODUgMC40NjA2MTQsLTAuNjM2NzMgMC40NjA2MTQsLTEuNDQ5NTggMCwtMC43NzIyIC0wLjQ2MDYxNCwtMS4zODE4NCAtMC40NjA2MTMsLTAuNjA5NjMgLTEuMDAyNTEyLC0wLjc0NTExIFEgNzIuODE1OTYxLDE3My4yMyA3MS4zMjU3NCwxNzMuMjMgWiIKICAgICAgICAgc3R5bGU9ImZvbnQtd2VpZ2h0OmJvbGQ7Zm9udC1zaXplOjI3Ljc0NTJweDtsaW5lLWhlaWdodDoxLjI1O2ZvbnQtZmFtaWx5OidGcmFua2xpbiBHb3RoaWMgRGVtaSc7LWlua3NjYXBlLWZvbnQtc3BlY2lmaWNhdGlvbjonRnJhbmtsaW4gR290aGljIERlbWkgQm9sZCc7c3Ryb2tlLXdpZHRoOjEuNzM0MDc7ZmlsbDojMDAwMDAwO2ZpbGwtb3BhY2l0eToxIgogICAgICAgICBpZD0icGF0aDEwODYiIC8+CiAgICAgIDxwYXRoCiAgICAgICAgIGQ9Im0gOTEuNzI4MjE2LDE2OS45Mzc5NyA1Ljc4NDc2NiwxOC40OTIyOCBoIC00LjY2MDMyNyBsIC0xLjEyNDQzOSwtMy44MDY4MyBoIC01Ljk4Nzk3NyBsIC0xLjE2NTA4MiwzLjgwNjgzIGggLTMuNzkzMjg5IGwgNS45MjAyNCwtMTguNDkyMjggeiBtIC00Ljk0NDgyMywxMS4yNzE0OSBoIDMuOTI4NzY0IGwgLTEuOTY0MzgyLC02LjQ4OTI0IHoiCiAgICAgICAgIHN0eWxlPSJmb250LXdlaWdodDpib2xkO2ZvbnQtc2l6ZToyNy43NDUycHg7bGluZS1oZWlnaHQ6MS4yNTtmb250LWZhbWlseTonRnJhbmtsaW4gR290aGljIERlbWknOy1pbmtzY2FwZS1mb250LXNwZWNpZmljYXRpb246J0ZyYW5rbGluIEdvdGhpYyBEZW1pIEJvbGQnO3N0cm9rZS13aWR0aDoxLjczNDA3O2ZpbGw6IzAwMDAwMDtmaWxsLW9wYWNpdHk6MSIKICAgICAgICAgaWQ9InBhdGgxMDg4IiAvPgogICAgICA8cGF0aAogICAgICAgICBkPSJtIDk5LjUwNDQ1OSwxNjkuOTM3OTcgaCA1LjY0OTI5MSBxIDMuNDU0NiwwIDUuMTQ4MDMsMC45NjE4NyAxLjY5MzQ0LDAuOTQ4MzIgMy4wMzQ2NCwzLjAyMTA4IDEuMzQxMTksMi4wNTkyMiAxLjM0MTE5LDUuMjE1NzcgMCwzLjk2OTQxIC0yLjM0MzcxLDYuNjM4MjYgLTIuMzQzNzEsMi42NTUzIC02LjQ2MjEzLDIuNjU1MyBoIC02LjM2NzMxMSB6IG0gNC4yNTM5MDEsMy40MDA0MSB2IDExLjYxMDE3IGggMS43ODgyNyBxIDIuMzcwOCwwIDMuNTIyMzQsLTEuNzYxMTcgMS4xNTE1MywtMS43NzQ3MSAxLjE1MTUzLC00LjE1OTA3IDAsLTEuNjc5ODggLTAuNjYzODMsLTMuMTAyMzYgLTAuNjUwMjcsLTEuNDM2MDMgLTEuNjI1NjksLTIuMDA1MDMgLTAuOTc1NDIsLTAuNTgyNTQgLTIuMzQzNzEsLTAuNTgyNTQgeiIKICAgICAgICAgc3R5bGU9ImZvbnQtd2VpZ2h0OmJvbGQ7Zm9udC1zaXplOjI3Ljc0NTJweDtsaW5lLWhlaWdodDoxLjI1O2ZvbnQtZmFtaWx5OidGcmFua2xpbiBHb3RoaWMgRGVtaSc7LWlua3NjYXBlLWZvbnQtc3BlY2lmaWNhdGlvbjonRnJhbmtsaW4gR290aGljIERlbWkgQm9sZCc7c3Ryb2tlLXdpZHRoOjEuNzM0MDc7ZmlsbDojMDAwMDAwO2ZpbGwtb3BhY2l0eToxIgogICAgICAgICBpZD0icGF0aDEwOTAiIC8+CiAgICAgIDxwYXRoCiAgICAgICAgIGQ9Im0gMTIxLjgxNzEzLDE2OS45Mzc5NyB2IDE4LjQ5MjI4IGggLTQuMzIxNjQgdiAtMTguNDkyMjggeiIKICAgICAgICAgc3R5bGU9ImZvbnQtd2VpZ2h0OmJvbGQ7Zm9udC1zaXplOjI3Ljc0NTJweDtsaW5lLWhlaWdodDoxLjI1O2ZvbnQtZmFtaWx5OidGcmFua2xpbiBHb3RoaWMgRGVtaSc7LWlua3NjYXBlLWZvbnQtc3BlY2lmaWNhdGlvbjonRnJhbmtsaW4gR290aGljIERlbWkgQm9sZCc7c3Ryb2tlLXdpZHRoOjEuNzM0MDc7ZmlsbDojMDAwMDAwO2ZpbGwtb3BhY2l0eToxIgogICAgICAgICBpZD0icGF0aDEwOTIiIC8+CiAgICAgIDxwYXRoCiAgICAgICAgIGQ9Im0gMTM0LjYxOTQ4LDE2OS45Mzc5NyA1Ljc4NDc2LDE4LjQ5MjI4IGggLTQuNjYwMzIgbCAtMS4xMjQ0NCwtMy44MDY4MyBoIC01Ljk4Nzk4IGwgLTEuMTY1MDgsMy44MDY4MyBoIC0zLjc5MzI5IGwgNS45MjAyNCwtMTguNDkyMjggeiBtIC00Ljk0NDgyLDExLjI3MTQ5IGggMy45Mjg3NiBsIC0xLjk2NDM4LC02LjQ4OTI0IHoiCiAgICAgICAgIHN0eWxlPSJmb250LXdlaWdodDpib2xkO2ZvbnQtc2l6ZToyNy43NDUycHg7bGluZS1oZWlnaHQ6MS4yNTtmb250LWZhbWlseTonRnJhbmtsaW4gR290aGljIERlbWknOy1pbmtzY2FwZS1mb250LXNwZWNpZmljYXRpb246J0ZyYW5rbGluIEdvdGhpYyBEZW1pIEJvbGQnO3N0cm9rZS13aWR0aDoxLjczNDA3O2ZpbGw6IzAwMDAwMDtmaWxsLW9wYWNpdHk6MSIKICAgICAgICAgaWQ9InBhdGgxMDk0IiAvPgogICAgICA8cGF0aAogICAgICAgICBkPSJtIDE1Mi43MDUzMywxNjkuOTM3OTcgdiAzLjY1NzgxIGggLTQuNTc5MDQgdiAxNC44MzQ0NyBoIC00LjM4OTM3IHYgLTE0LjgzNDQ3IGggLTQuNjA2MTQgdiAtMy42NTc4MSB6IgogICAgICAgICBzdHlsZT0iZm9udC13ZWlnaHQ6Ym9sZDtmb250LXNpemU6MjcuNzQ1MnB4O2xpbmUtaGVpZ2h0OjEuMjU7Zm9udC1mYW1pbHk6J0ZyYW5rbGluIEdvdGhpYyBEZW1pJzstaW5rc2NhcGUtZm9udC1zcGVjaWZpY2F0aW9uOidGcmFua2xpbiBHb3RoaWMgRGVtaSBCb2xkJztzdHJva2Utd2lkdGg6MS43MzQwNztmaWxsOiMwMDAwMDA7ZmlsbC1vcGFjaXR5OjEiCiAgICAgICAgIGlkPSJwYXRoMTA5NiIgLz4KICAgICAgPHBhdGgKICAgICAgICAgZD0ibSAxNjcuNzcwMTEsMTczLjQ2MDMxIGggLTguODE5NCB2IDMuNzkzMjkgaCA2LjkzNjMgdiAzLjQ4MTY5IGggLTYuOTM2MyB2IDQuMDM3MTUgaCA4LjgxOTQgdiAzLjY1NzgxIGggLTEzLjIyMjMyIHYgLTE4LjQ5MjI4IGggMTMuMjIyMzIgeiIKICAgICAgICAgc3R5bGU9ImZvbnQtd2VpZ2h0OmJvbGQ7Zm9udC1zaXplOjI3Ljc0NTJweDtsaW5lLWhlaWdodDoxLjI1O2ZvbnQtZmFtaWx5OidGcmFua2xpbiBHb3RoaWMgRGVtaSc7LWlua3NjYXBlLWZvbnQtc3BlY2lmaWNhdGlvbjonRnJhbmtsaW4gR290aGljIERlbWkgQm9sZCc7c3Ryb2tlLXdpZHRoOjEuNzM0MDc7ZmlsbDojMDAwMDAwO2ZpbGwtb3BhY2l0eToxIgogICAgICAgICBpZD0icGF0aDEwOTgiIC8+CiAgICA8L2c+CiAgPC9nPgo8L3N2Zz4K;" vertex="1" parent="obgYGGiiwSXClEFMFCNB-4">
          <mxGeometry x="35" width="166.35" height="31.5" as="geometry" />
        </mxCell>
        <mxCell id="Qhg78K9M03xVrOgJA2YK-95" value="cpp_libs" parent="0" />
        <mxCell id="Qhg78K9M03xVrOgJA2YK-99" value="kernel" parent="0" />
        <mxCell id="Qhg78K9M03xVrOgJA2YK-111" style="edgeStyle=none;rounded=0;orthogonalLoop=1;jettySize=auto;html=1;exitX=1;exitY=0.5;exitDx=0;exitDy=0;entryX=0;entryY=0.5;entryDx=0;entryDy=0;endArrow=classicThin;endFill=1;endSize=6;strokeWidth=1;fontColor=#000000;" parent="Qhg78K9M03xVrOgJA2YK-99" edge="1">
          <mxGeometry relative="1" as="geometry">
            <mxPoint x="212.86000000000354" y="351.25" as="sourcePoint" />
          </mxGeometry>
        </mxCell>
        <mxCell id="Qhg78K9M03xVrOgJA2YK-120" style="edgeStyle=none;rounded=0;orthogonalLoop=1;jettySize=auto;html=1;exitX=1;exitY=0.5;exitDx=0;exitDy=0;entryX=0;entryY=0.5;entryDx=0;entryDy=0;endArrow=classicThin;endFill=1;endSize=6;strokeWidth=1;fontColor=#000000;" parent="Qhg78K9M03xVrOgJA2YK-99" edge="1">
          <mxGeometry relative="1" as="geometry">
            <mxPoint x="202.85999999999285" y="441.25" as="sourcePoint" />
          </mxGeometry>
        </mxCell>
        <mxCell id="Qhg78K9M03xVrOgJA2YK-183" value="python" parent="0" />
        <mxCell id="qL6MyxRRBsoLSFhqB5yX-80" value="scenes" parent="0" />
        <mxCell id="qL6MyxRRBsoLSFhqB5yX-155" value="solvers" parent="0" />
        <mxCell id="qL6MyxRRBsoLSFhqB5yX-161" value="legend" parent="0" />
        <mxCell id="QXpotxg9jiCfd9cfQt9x-80" value="util" parent="0" />
        <mxCell id="QXpotxg9jiCfd9cfQt9x-122" value="data" parent="0" />
      </root>
    </mxGraphModel>
  </diagram>
</mxfile>
